<svg width="20" height="20" viewBox="0 0 20 20" fill="none" xmlns="http://www.w3.org/2000/svg">
<g clip-path="url(#clip0)">
<path d="M20.563 1.33994C20.4192 1.24205 20.2524 1.18329 20.0789 1.16944C19.9055 1.15559 19.7315 1.18712 19.574 1.26094L2.57398 9.26094C2.40021 9.34283 2.2537 9.47303 2.15197 9.63598C2.05024 9.79893 1.9976 9.98774 2.00035 10.1798C2.00309 10.3719 2.0611 10.5591 2.16744 10.7191C2.27377 10.8791 2.42394 11.0051 2.59998 11.0819L7.99998 13.4449V20.1669L13.836 15.9989L18.6 18.0829C18.7471 18.1474 18.9075 18.1754 19.0677 18.1647C19.2279 18.154 19.3832 18.1049 19.5204 18.0216C19.6576 17.9382 19.7728 17.823 19.8561 17.6857C19.9394 17.5485 19.9884 17.3932 19.999 17.2329L20.999 2.23294C21.0099 2.05907 20.9755 1.88534 20.8991 1.72878C20.8226 1.57223 20.7068 1.43823 20.563 1.33994ZM18.097 15.6799L12.828 13.3739L16 7.16694L8.35098 11.4169L5.41898 10.1339L18.89 3.79394L18.097 15.6799Z" fill="black"/>
</g>
<defs>
<clipPath id="clip0">
<rect width="20" height="20" fill="white"/>
</clipPath>
</defs>
</svg>
