<svg width="156" height="156" viewBox="0 0 156 156" fill="none" xmlns="http://www.w3.org/2000/svg">
<g opacity="0.5">
<path opacity="0.5" d="M78.2358 155.913C120.991 155.913 155.651 121.205 155.651 78.3911C155.651 35.5772 120.991 0.869629 78.2358 0.869629C35.4805 0.869629 0.820557 35.5772 0.820557 78.3911C0.820557 121.205 35.4805 155.913 78.2358 155.913Z" fill="url(#paint0_linear)"/>
</g>
<path d="M78.3827 153.779C120.234 153.779 154.161 119.805 154.161 77.8963C154.161 35.9875 120.234 2.01367 78.3827 2.01367C36.5314 2.01367 2.60413 35.9875 2.60413 77.8963C2.60413 119.805 36.5314 153.779 78.3827 153.779Z" fill="#F5F5F5"/>
<path d="M78.4495 154.08C93.2486 154.099 107.726 149.758 120.08 141.598C117.287 126.32 106.659 125.443 106.659 125.443H48.0886C48.0886 125.443 38.0686 126.266 34.929 140.327C47.6697 149.301 62.8725 154.105 78.4495 154.08Z" fill="#6477B6"/>
<path d="M77.6479 112.928C97.8505 112.928 114.228 96.5277 114.228 76.2974C114.228 56.0671 97.8505 39.6672 77.6479 39.6672C57.4454 39.6672 41.0679 56.0671 41.0679 76.2974C41.0679 96.5277 57.4454 112.928 77.6479 112.928Z" fill="#F55F44"/>
<path opacity="0.1" d="M65.8443 106.807H89.2846V125.584C89.2846 128.696 88.0502 131.68 85.8529 133.88C83.6555 136.081 80.6753 137.317 77.5678 137.317C74.4603 137.317 71.4801 136.081 69.2828 133.88C67.0854 131.68 65.851 128.696 65.851 125.584V106.807H65.8443Z" fill="black"/>
<path d="M68.0821 105.938H87.0468C87.3406 105.938 87.6317 105.995 87.9032 106.108C88.1747 106.221 88.4213 106.386 88.6291 106.594C88.8369 106.802 89.0018 107.049 89.1142 107.321C89.2267 107.593 89.2846 107.884 89.2846 108.178V124.714C89.2846 126.255 88.9815 127.781 88.3927 129.204C87.8039 130.628 86.9408 131.921 85.8528 133.011C84.7648 134.1 83.4732 134.964 82.0516 135.554C80.6301 136.144 79.1064 136.447 77.5678 136.447C76.0291 136.447 74.5055 136.144 73.0839 135.554C71.6624 134.964 70.3707 134.1 69.2827 133.011C68.1947 131.921 67.3317 130.628 66.7428 129.204C66.154 127.781 65.851 126.255 65.851 124.714V108.178C65.851 107.584 66.0867 107.014 66.5064 106.594C66.9261 106.174 67.4953 105.938 68.0888 105.938H68.0821Z" fill="#FDA57D"/>
<path opacity="0.1" d="M65.8911 115.67C73.4453 118.497 81.7611 118.521 89.3313 115.737V112.854H65.8911V115.67Z" fill="black"/>
<path d="M77.6479 117.242C96.2014 117.242 111.242 102.181 111.242 83.602C111.242 65.0231 96.2014 49.9619 77.6479 49.9619C59.0945 49.9619 44.0539 65.0231 44.0539 83.602C44.0539 102.181 59.0945 117.242 77.6479 117.242Z" fill="#FDA57D"/>
<path d="M77.6012 52.5775C85.0683 52.5775 91.1216 46.5159 91.1216 39.0385C91.1216 31.5611 85.0683 25.4995 77.6012 25.4995C70.1341 25.4995 64.0807 31.5611 64.0807 39.0385C64.0807 46.5159 70.1341 52.5775 77.6012 52.5775Z" fill="#F55F44"/>
<path d="M77.6012 34.5969C82.5043 34.5969 86.479 30.6167 86.479 25.7069C86.479 20.7971 82.5043 16.8169 77.6012 16.8169C72.6981 16.8169 68.7234 20.7971 68.7234 25.7069C68.7234 30.6167 72.6981 34.5969 77.6012 34.5969Z" fill="#F55F44"/>
<path d="M71.7361 46.4636C68.564 45.0387 66.0619 42.4451 64.7495 39.2213C63.4371 35.9975 63.4153 32.3913 64.6886 29.1519C64.5951 29.3392 64.5016 29.5332 64.4147 29.7271C63.6879 31.3496 63.2874 33.0996 63.236 34.8771C63.1845 36.6545 63.4833 38.4248 64.115 40.0867C64.7468 41.7486 65.6993 43.2696 66.9181 44.5629C68.1369 45.8562 69.5981 46.8964 71.2184 47.6242C72.8386 48.352 74.5862 48.7531 76.3612 48.8045C78.1363 48.856 79.9041 48.5569 81.5637 47.9243C83.2233 47.2916 84.7422 46.3379 86.0338 45.1174C87.3253 43.8969 88.3641 42.4337 89.0909 40.8112C89.1777 40.6172 89.2579 40.4232 89.338 40.2225C87.7685 43.3299 85.0638 45.7123 81.7858 46.8745C78.5078 48.0368 74.9086 47.8896 71.7361 46.4636Z" fill="#F55F44"/>
<path opacity="0.1" d="M53.7266 53.0057C53.7266 53.0057 67.8817 81.7694 107.835 65.0463L98.5365 50.4438L82.0568 44.5171L53.7266 53.0057Z" fill="black"/>
<path d="M53.7266 52.5775C53.7266 52.5775 67.8817 81.3412 107.835 64.6181L98.5365 50.0155L82.0568 44.0889L53.7266 52.5775Z" fill="#F55F44"/>
<path d="M64.6352 42.1022C73.3459 41.4161 82.097 41.4161 90.8077 42.1022C90.8077 42.1022 71.4756 43.9016 64.6352 42.1022Z" fill="#333333"/>
<path d="M79.6319 16.275C78.9603 16.2504 78.288 16.302 77.6279 16.4289H78.1423C80.3287 16.4989 82.4122 17.3754 83.9925 18.8901C85.5728 20.4047 86.5386 22.4506 86.7043 24.6348C86.87 26.8191 86.2239 28.9876 84.8902 30.7239C83.5564 32.4601 81.629 33.6417 79.4783 34.0417C81.831 34.063 84.0959 33.1475 85.7746 31.4966C87.4533 29.8457 88.4083 27.5946 88.4296 25.2386C88.4508 22.8826 87.5366 20.6147 85.888 18.9337C84.2394 17.2527 81.9914 16.2963 79.6386 16.275H79.6319Z" fill="#F55F44"/>
<path d="M44.0472 89.435C45.7738 89.435 47.1735 86.8085 47.1735 83.5686C47.1735 80.3286 45.7738 77.7021 44.0472 77.7021C42.3206 77.7021 40.921 80.3286 40.921 83.5686C40.921 86.8085 42.3206 89.435 44.0472 89.435Z" fill="#FDA57D"/>
<path d="M111.242 89.435C112.969 89.435 114.368 86.8085 114.368 83.5686C114.368 80.3286 112.969 77.7021 111.242 77.7021C109.515 77.7021 108.116 80.3286 108.116 83.5686C108.116 86.8085 109.515 89.435 111.242 89.435Z" fill="#FDA57D"/>
<path d="M51.6091 53.427L58.1622 50.0422L59.6385 55.4672L55.6238 58.2031L51.6091 53.427Z" fill="#F55F44"/>
<defs>
<linearGradient id="paint0_linear" x1="59622.9" y1="76004.5" x2="59622.9" y2="40070.2" gradientUnits="userSpaceOnUse">
<stop stop-color="#808080" stop-opacity="0.25"/>
<stop offset="0.54" stop-color="#808080" stop-opacity="0.12"/>
<stop offset="1" stop-color="#808080" stop-opacity="0.1"/>
</linearGradient>
</defs>
</svg>
