<svg width="156" height="156" viewBox="0 0 156 156" fill="none" xmlns="http://www.w3.org/2000/svg">
<g opacity="0.5">
<path opacity="0.5" d="M77.8784 156C120.634 156 155.294 121.292 155.294 78.4785C155.294 35.6646 120.634 0.957031 77.8784 0.957031C35.1232 0.957031 0.463196 35.6646 0.463196 78.4785C0.463196 121.292 35.1232 156 77.8784 156Z" fill="url(#paint0_linear)"/>
</g>
<path d="M78.0321 153.866C119.883 153.866 153.811 119.892 153.811 77.9834C153.811 36.0746 119.883 2.10083 78.0321 2.10083C36.1807 2.10083 2.25348 36.0746 2.25348 77.9834C2.25348 119.892 36.1807 153.866 78.0321 153.866Z" fill="#F5F5F5"/>
<path d="M119.722 85.4621C119.722 110.707 101.613 123.129 78.0922 123.129C54.5717 123.129 34.5649 110.707 34.5649 85.4621C34.5649 60.217 53.6298 39.7546 77.1436 39.7546C100.657 39.7546 119.722 60.1969 119.722 85.4621Z" fill="#333333"/>
<path d="M78.0922 154.167C92.9026 154.193 107.393 149.852 119.756 141.685C116.963 126.407 106.335 125.531 106.335 125.531H47.738C47.738 125.531 37.7179 126.354 34.5782 140.414C47.3172 149.387 62.5175 154.191 78.0922 154.167Z" fill="#6477B6"/>
<path opacity="0.1" d="M65.4936 106.874H88.9339V125.651C88.9366 127.196 88.6346 128.726 88.0453 130.153C87.4559 131.581 86.5909 132.878 85.4998 133.97C84.4087 135.062 83.113 135.927 81.6871 136.517C80.2611 137.106 78.733 137.407 77.1904 137.404C74.0829 137.404 71.1027 136.168 68.9054 133.967C66.708 131.767 65.4736 128.783 65.4736 125.671V106.874H65.4936Z" fill="black"/>
<path d="M67.7247 106.025H86.6894C87.2829 106.025 87.8521 106.261 88.2718 106.681C88.6915 107.101 88.9273 107.671 88.9273 108.266V124.801C88.9273 126.344 88.6235 127.871 88.0335 129.296C87.4434 130.721 86.5785 132.015 85.4884 133.105C84.3983 134.195 83.1042 135.059 81.6804 135.647C80.2565 136.235 78.7308 136.537 77.1904 136.534C74.0829 136.534 71.1027 135.298 68.9054 133.098C66.708 130.898 65.4736 127.913 65.4736 124.801V108.259C65.4736 107.665 65.7093 107.095 66.129 106.674C66.5487 106.254 67.1179 106.018 67.7114 106.018L67.7247 106.025Z" fill="#FDA57D"/>
<path opacity="0.1" d="M65.5404 115.758C73.0947 118.585 81.4105 118.609 88.9807 115.824V112.941H65.5404V115.758Z" fill="black"/>
<path d="M77.2973 117.323C95.8507 117.323 110.891 102.262 110.891 83.6826C110.891 65.1037 95.8507 50.0425 77.2973 50.0425C58.7438 50.0425 43.7032 65.1037 43.7032 83.6826C43.7032 102.262 58.7438 117.323 77.2973 117.323Z" fill="#FDA57D"/>
<path opacity="0.1" d="M38.5796 85.8835C38.5796 85.8835 59.5016 83.3416 75.32 63.0331C75.32 63.0331 96.2419 86.0975 110.818 83.5556C110.818 83.5556 119.268 74.6656 110.818 65.7823C102.368 56.8991 95.8144 45.6813 84.6186 47.1596C73.4228 48.6379 59.6819 49.2734 53.7701 54.5645C47.8582 59.8557 38.5796 85.8835 38.5796 85.8835Z" fill="black"/>
<path d="M38.5796 85.4621C38.5796 85.4621 59.5016 82.9202 75.32 62.6117C75.32 62.6117 96.2419 85.6762 110.818 83.1343C110.818 83.1343 119.268 74.2443 110.818 65.361C102.368 56.4777 95.8144 45.2599 84.6186 46.7382C73.4228 48.2165 59.7087 48.8252 53.7968 54.1766C47.885 59.528 38.5796 85.4621 38.5796 85.4621Z" fill="#333333"/>
<path d="M43.6899 89.5225C45.4165 89.5225 46.8161 86.896 46.8161 83.656C46.8161 80.416 45.4165 77.7896 43.6899 77.7896C41.9633 77.7896 40.5636 80.416 40.5636 83.656C40.5636 86.896 41.9633 89.5225 43.6899 89.5225Z" fill="#FDA57D"/>
<path d="M110.885 89.5225C112.611 89.5225 114.011 86.896 114.011 83.656C114.011 80.416 112.611 77.7896 110.885 77.7896C109.158 77.7896 107.758 80.416 107.758 83.656C107.758 86.896 109.158 89.5225 110.885 89.5225Z" fill="#FDA57D"/>
<defs>
<linearGradient id="paint0_linear" x1="60698.6" y1="117282" x2="60698.6" y2="81347.3" gradientUnits="userSpaceOnUse">
<stop stop-color="#808080" stop-opacity="0.25"/>
<stop offset="0.54" stop-color="#808080" stop-opacity="0.12"/>
<stop offset="1" stop-color="#808080" stop-opacity="0.1"/>
</linearGradient>
</defs>
</svg>
