<svg width="156" height="156" viewBox="0 0 156 156" fill="none" xmlns="http://www.w3.org/2000/svg">
<g opacity="0.5">
<path opacity="0.5" d="M77.7056 155.043C120.461 155.043 155.121 120.335 155.121 77.5215C155.121 34.7075 120.461 0 77.7056 0C34.9504 0 0.290405 34.7075 0.290405 77.5215C0.290405 120.335 34.9504 155.043 77.7056 155.043Z" fill="url(#paint0_linear)"/>
</g>
<path d="M77.8526 152.902C119.704 152.902 153.631 118.929 153.631 77.0198C153.631 35.111 119.704 1.13721 77.8526 1.13721C36.0012 1.13721 2.07397 35.111 2.07397 77.0198C2.07397 118.929 36.0012 152.902 77.8526 152.902Z" fill="#F5F5F5"/>
<path d="M77.9194 153.21C92.7276 153.235 107.215 148.893 119.576 140.728C116.777 125.443 106.156 124.567 106.156 124.567H47.5652C47.5652 124.567 37.5451 125.39 34.4055 139.45C47.1436 148.426 62.344 153.232 77.9194 153.21Z" fill="#6477B6"/>
<path d="M77.1245 112.051C97.3271 112.051 113.704 95.6513 113.704 75.421C113.704 55.1907 97.3271 38.7908 77.1245 38.7908C56.9219 38.7908 40.5444 55.1907 40.5444 75.421C40.5444 95.6513 56.9219 112.051 77.1245 112.051Z" fill="#72351C"/>
<path opacity="0.1" d="M65.3141 105.931H88.7545V124.707C88.7572 126.25 88.456 127.778 87.8684 129.203C87.2807 130.629 86.4181 131.925 85.3298 133.017C84.2415 134.108 82.949 134.974 81.5262 135.565C80.1033 136.156 78.578 136.46 77.0377 136.46C73.9302 136.46 70.9499 135.224 68.7526 133.024C66.5553 130.823 65.3208 127.839 65.3208 124.727V105.931H65.3141Z" fill="black"/>
<path d="M67.5319 105.061H86.4966C87.0901 105.061 87.6593 105.297 88.079 105.717C88.4987 106.138 88.7344 106.708 88.7344 107.302V123.838C88.7344 126.949 87.5 129.934 85.3027 132.134C83.1053 134.334 80.1251 135.571 77.0176 135.571C73.9101 135.571 70.9299 134.334 68.7326 132.134C66.5353 129.934 65.3008 126.949 65.3008 123.838V107.302C65.3008 106.708 65.5366 106.138 65.9562 105.717C66.3759 105.297 66.9451 105.061 67.5386 105.061H67.5319Z" fill="#FDA57D"/>
<path opacity="0.1" d="M65.3408 114.794C72.8951 117.621 81.211 117.645 88.7812 114.861V111.978H65.3408V114.794Z" fill="black"/>
<path d="M77.1245 116.366C95.678 116.366 110.719 101.305 110.719 82.7257C110.719 64.1468 95.678 49.0856 77.1245 49.0856C58.5711 49.0856 43.5305 64.1468 43.5305 82.7257C43.5305 101.305 58.5711 116.366 77.1245 116.366Z" fill="#FDA57D"/>
<path opacity="0.1" d="M53.1965 52.1291C53.1965 52.1291 67.3516 80.8928 107.305 64.1698L98.0064 49.5672L81.5267 43.6405L53.1965 52.1291Z" fill="black"/>
<path d="M53.1965 51.7078C53.1965 51.7078 67.3516 80.4714 107.305 63.7484L98.0064 49.1458L81.5267 43.2191L53.1965 51.7078Z" fill="#72351C"/>
<path d="M53.0696 49.7612C54.0239 46.8024 55.6733 44.1162 57.8792 41.9281C64.4858 35.386 75.3209 34.008 80.8787 26.5428C81.1807 27.0712 81.3686 27.657 81.4305 28.2626C81.4924 28.8682 81.4268 29.4801 81.238 30.0587C81.0492 30.6373 80.7413 31.1699 80.3342 31.622C79.9271 32.0741 79.4299 32.4358 78.8747 32.6836C84.2187 32.6501 90.371 32.1819 93.377 27.7937C94.121 29.5278 94.3584 31.4376 94.0616 33.3013C93.7648 35.1651 92.946 36.9063 91.7004 38.3226C96.4165 38.5366 101.453 41.7408 101.761 46.4634C101.961 49.6073 99.997 52.584 97.4118 54.3901C94.8266 56.1962 91.7137 57.0056 88.6409 57.6745C79.6763 59.6813 47.2179 67.9826 53.0696 49.7612Z" fill="#72351C"/>
<path d="M110.719 83.02H109.83L92.502 98.4788C75.8018 90.6524 63.5506 98.4788 63.5506 98.4788L45.3809 83.6689L43.5505 83.8963C43.7983 92.7258 47.5042 101.103 53.8678 107.22C60.2314 113.337 68.7421 116.702 77.5622 116.589C86.3823 116.475 94.8041 112.893 101.009 106.615C107.214 100.336 110.704 91.8663 110.725 83.0334L110.719 83.02ZM77.0778 104.392C70.5447 104.392 65.2474 103.054 65.2474 101.429C65.2474 99.8033 70.5447 98.4654 77.0778 98.4654C83.6109 98.4654 88.9082 99.8033 88.9082 101.429C88.9082 103.054 83.6109 104.392 77.0711 104.392H77.0778Z" fill="#72351C"/>
<path d="M43.5171 88.5587C45.2437 88.5587 46.6434 85.9322 46.6434 82.6923C46.6434 79.4523 45.2437 76.8258 43.5171 76.8258C41.7905 76.8258 40.3909 79.4523 40.3909 82.6923C40.3909 85.9322 41.7905 88.5587 43.5171 88.5587Z" fill="#FDA57D"/>
<path d="M110.712 88.5587C112.438 88.5587 113.838 85.9322 113.838 82.6923C113.838 79.4523 112.438 76.8258 110.712 76.8258C108.985 76.8258 107.586 79.4523 107.586 82.6923C107.586 85.9322 108.985 88.5587 110.712 88.5587Z" fill="#FDA57D"/>
<defs>
<linearGradient id="paint0_linear" x1="102379" y1="35934.3" x2="102379" y2="0" gradientUnits="userSpaceOnUse">
<stop stop-color="#808080" stop-opacity="0.25"/>
<stop offset="0.54" stop-color="#808080" stop-opacity="0.12"/>
<stop offset="1" stop-color="#808080" stop-opacity="0.1"/>
</linearGradient>
</defs>
</svg>
