<svg width="155" height="156" viewBox="0 0 155 156" fill="none" xmlns="http://www.w3.org/2000/svg">
<g opacity="0.5">
<path opacity="0.5" d="M77.4152 155.835C120.17 155.835 154.83 121.128 154.83 78.3139C154.83 35.5 120.17 0.79248 77.4152 0.79248C34.66 0.79248 0 35.5 0 78.3139C0 121.128 34.66 155.835 77.4152 155.835Z" fill="url(#paint0_linear)"/>
</g>
<path d="M77.5622 153.702C119.414 153.702 153.341 119.728 153.341 77.8191C153.341 35.9103 119.414 1.93652 77.5622 1.93652C35.7108 1.93652 1.78357 35.9103 1.78357 77.8191C1.78357 119.728 35.7108 153.702 77.5622 153.702Z" fill="#F5F5F5"/>
<path d="M77.629 154.003C92.4349 154.026 106.92 149.685 119.279 141.521C116.487 126.242 105.859 125.366 105.859 125.366H47.2414C47.2414 125.366 37.2213 126.189 34.0817 140.25C46.8299 149.229 62.0429 154.034 77.629 154.003Z" fill="#6477B6"/>
<path d="M76.8274 112.851C97.03 112.851 113.407 96.4506 113.407 76.2203C113.407 55.99 97.03 39.5901 76.8274 39.5901C56.6248 39.5901 40.2474 55.99 40.2474 76.2203C40.2474 96.4506 56.6248 112.851 76.8274 112.851Z" fill="#333333"/>
<path opacity="0.1" d="M65.0237 106.73H88.4641V125.507C88.4641 128.618 87.2296 131.603 85.0323 133.803C82.8349 136.003 79.8547 137.24 76.7472 137.24C73.6397 137.24 70.6595 136.003 68.4622 133.803C66.2648 131.603 65.0304 128.618 65.0304 125.507V106.73H65.0237Z" fill="black"/>
<path d="M67.2615 105.86H86.2262C86.8197 105.86 87.3889 106.096 87.8086 106.517C88.2283 106.937 88.4641 107.507 88.4641 108.101V124.65C88.4641 127.762 87.2296 130.746 85.0323 132.947C82.8349 135.147 79.8547 136.383 76.7472 136.383C75.208 136.384 73.6837 136.081 72.2613 135.492C70.839 134.903 69.5466 134.039 68.4579 132.949C67.3691 131.859 66.5055 130.566 65.9162 129.142C65.327 127.718 65.0237 126.192 65.0237 124.65V108.094C65.0237 107.5 65.2595 106.93 65.6792 106.51C66.0988 106.09 66.668 105.854 67.2615 105.854V105.86Z" fill="#FDB797"/>
<path opacity="0.1" d="M65.0705 115.593C72.6248 118.42 80.9406 118.444 88.5108 115.66V112.757H65.0705V115.593Z" fill="black"/>
<path d="M76.8274 117.165C95.3808 117.165 110.421 102.104 110.421 83.5251C110.421 64.9462 95.3808 49.885 76.8274 49.885C58.2739 49.885 43.2333 64.9462 43.2333 83.5251C43.2333 102.104 58.2739 117.165 76.8274 117.165Z" fill="#FDB797"/>
<path opacity="0.1" d="M52.9061 52.9217C52.9061 52.9217 67.0611 81.6854 107.015 64.9623L97.7159 50.3598L81.2362 44.4331L52.9061 52.9217Z" fill="black"/>
<path d="M52.9061 52.5003C52.9061 52.5003 67.0611 81.264 107.015 64.541L97.7159 49.9384L81.2362 44.0117L52.9061 52.5003Z" fill="#333333"/>
<path d="M52.7792 50.5472C53.7335 47.5884 55.3829 44.9022 57.5888 42.7141C64.1954 36.172 75.0304 34.794 80.5883 27.3289C80.8902 27.8572 81.0782 28.443 81.1401 29.0486C81.202 29.6542 81.1364 30.2661 80.9476 30.8447C80.7588 31.4233 80.4509 31.9559 80.0438 32.408C79.6367 32.8601 79.1395 33.2218 78.5842 33.4696C83.9283 33.4361 90.0806 32.9679 93.0867 28.5797C93.8306 30.3138 94.068 32.2236 93.7712 34.0873C93.4744 35.9511 92.6556 37.6923 91.4099 39.1086C96.1261 39.3226 101.163 42.5268 101.47 47.2494C101.671 50.3933 99.7066 53.37 97.1214 55.1761C94.5362 56.9822 91.4166 57.805 88.3438 58.4873C79.3792 60.4807 46.9274 68.782 52.7792 50.5472Z" fill="#333333"/>
<path d="M43.22 89.3578C44.9466 89.3578 46.3463 86.7314 46.3463 83.4914C46.3463 80.2515 44.9466 77.625 43.22 77.625C41.4934 77.625 40.0938 80.2515 40.0938 83.4914C40.0938 86.7314 41.4934 89.3578 43.22 89.3578Z" fill="#FDB797"/>
<path d="M110.415 89.3578C112.141 89.3578 113.541 86.7314 113.541 83.4914C113.541 80.2515 112.141 77.625 110.415 77.625C108.688 77.625 107.288 80.2515 107.288 83.4914C107.288 86.7314 108.688 89.3578 110.415 89.3578Z" fill="#FDB797"/>
<defs>
<linearGradient id="paint0_linear" x1="17943.3" y1="74827.6" x2="17943.3" y2="38893.3" gradientUnits="userSpaceOnUse">
<stop stop-color="#808080" stop-opacity="0.25"/>
<stop offset="0.54" stop-color="#808080" stop-opacity="0.12"/>
<stop offset="1" stop-color="#808080" stop-opacity="0.1"/>
</linearGradient>
</defs>
</svg>
