<svg width="156" height="156" viewBox="0 0 156 156" fill="none" xmlns="http://www.w3.org/2000/svg">
<path d="M78.1834 153.344C92.9916 153.369 107.479 149.027 119.84 140.862C117.048 125.584 106.42 124.708 106.42 124.708H47.8292C47.8292 124.708 37.8091 125.53 34.6695 139.591C47.4084 148.564 62.6087 153.368 78.1834 153.344Z" fill="#6477B6"/>
<path opacity="0.1" d="M65.6316 114.948C73.1859 117.775 81.5017 117.799 89.0719 115.015V112.132H65.6316V114.948Z" fill="black"/>
<g opacity="0.5">
<path opacity="0.5" d="M77.9697 155.19C120.725 155.19 155.385 120.483 155.385 77.6688C155.385 34.8549 120.725 0.147339 77.9697 0.147339C35.2144 0.147339 0.554443 34.8549 0.554443 77.6688C0.554443 120.483 35.2144 155.19 77.9697 155.19Z" fill="url(#paint0_linear)"/>
</g>
<path d="M77.9697 153.13C119.821 153.13 153.748 119.156 153.748 77.2473C153.748 35.3385 119.821 1.36475 77.9697 1.36475C36.1183 1.36475 2.19104 35.3385 2.19104 77.2473C2.19104 119.156 36.1183 153.13 77.9697 153.13Z" fill="#F5F5F5"/>
<path d="M77.3885 109.215C95.942 109.215 110.983 94.154 110.983 75.5751C110.983 56.9961 95.942 41.9349 77.3885 41.9349C58.8351 41.9349 43.7945 56.9961 43.7945 75.5751C43.7945 94.154 58.8351 109.215 77.3885 109.215Z" fill="#333333"/>
<path opacity="0.1" d="M65.5848 106.085H89.0252V124.861C89.0252 127.973 87.7907 130.957 85.5934 133.158C83.3961 135.358 80.4158 136.594 77.3083 136.594C74.2008 136.594 71.2206 135.358 69.0233 133.158C66.826 130.957 65.5915 127.973 65.5915 124.861V106.085H65.5848Z" fill="black"/>
<path d="M67.8227 105.215H86.7873C87.3809 105.215 87.95 105.451 88.3697 105.871C88.7894 106.292 89.0252 106.862 89.0252 107.456V123.992C89.0252 127.104 87.7907 130.088 85.5934 132.288C83.3961 134.489 80.4158 135.725 77.3083 135.725C74.2009 135.725 71.2206 134.489 69.0233 132.288C66.826 130.088 65.5915 127.104 65.5915 123.992V107.456C65.5915 106.863 65.8264 106.294 66.2446 105.874C66.6628 105.454 67.2303 105.217 67.8227 105.215Z" fill="#BE7C5E"/>
<path d="M77.3885 116.52C95.942 116.52 110.983 101.459 110.983 82.8796C110.983 64.3007 95.942 49.2395 77.3885 49.2395C58.8351 49.2395 43.7945 64.3007 43.7945 82.8796C43.7945 101.459 58.8351 116.52 77.3885 116.52Z" fill="#BE7C5E"/>
<path d="M57.0344 69.0063C57.4285 67.5547 57.9228 65.956 59.2254 65.2001C60.2542 64.5981 61.53 64.6917 62.7191 64.7519C72.0044 65.2603 81.2095 63.1398 90.2409 60.9257C95.4046 59.6614 100.929 58.1229 104.269 53.9555C107.609 49.7881 103.254 36.6906 98.1702 35.1454C94.8301 34.122 90.9557 36.0284 87.7894 34.53C86.3799 33.8611 85.3445 32.6102 84.1287 31.6336C81.637 29.6268 78.4373 28.8174 75.3377 28.0548C71.7171 27.1585 67.8026 26.2822 64.3624 27.7204C61.6904 28.8308 59.7398 31.1787 57.208 32.5701C52.3917 35.2458 46.5199 34.0016 41.0022 33.9882C39.1385 33.9882 36.914 34.3628 36.1725 36.0752C35.6715 37.2392 36.0723 38.5636 36.1258 39.8279C36.2861 43.8414 32.9795 46.9653 30.2072 49.8617C27.435 52.7582 24.8164 56.8921 26.5666 60.4909C27.2346 61.8622 28.4571 62.899 29.1518 64.257C30.3475 66.6116 29.7463 69.4545 30.1805 72.0566C30.6153 74.0311 31.3521 75.9264 32.3649 77.6755C34.4224 81.6891 44.7564 103.295 49.5059 97.8034C51.8039 95.1277 52.178 87.395 53.1065 83.9166C54.3891 78.9175 55.6983 73.9474 57.0344 69.0063Z" fill="#333333"/>
<path d="M53.4872 87.522C55.2138 87.522 56.6135 84.8955 56.6135 81.6555C56.6135 78.4156 55.2138 75.7891 53.4872 75.7891C51.7606 75.7891 50.361 78.4156 50.361 81.6555C50.361 84.8955 51.7606 87.522 53.4872 87.522Z" fill="#BE7C5E"/>
<defs>
<linearGradient id="paint0_linear" x1="77.9697" y1="155.19" x2="77.9697" y2="0.154029" gradientUnits="userSpaceOnUse">
<stop stop-color="#808080" stop-opacity="0.25"/>
<stop offset="0.54" stop-color="#808080" stop-opacity="0.12"/>
<stop offset="1" stop-color="#808080" stop-opacity="0.1"/>
</linearGradient>
</defs>
</svg>
