<svg width="595" height="581" viewBox="0 0 595 581" fill="none" xmlns="http://www.w3.org/2000/svg">
<path d="M377.73 130.665H217.404C213.75 130.669 210.248 132.123 207.664 134.708C205.081 137.292 203.627 140.796 203.623 144.451V500.905L201.785 501.465L162.455 513.514C160.591 514.083 158.577 513.888 156.857 512.973C155.136 512.058 153.849 510.498 153.277 508.634L36.2861 126.355C35.7168 124.49 35.9108 122.475 36.8256 120.754C37.7404 119.032 39.301 117.744 41.1646 117.173L101.773 98.6085L277.479 44.8073L338.087 26.2424C339.01 25.9584 339.979 25.8592 340.94 25.9504C341.901 26.0416 342.834 26.3214 343.686 26.7738C344.539 27.2263 345.294 27.8424 345.908 28.5871C346.522 29.3317 346.984 30.1902 347.266 31.1134L377.17 128.827L377.73 130.665Z" fill="url(#paint0_linear)"/>
<path d="M412.715 128.826L376.674 11.0592C376.074 9.09696 375.094 7.27217 373.789 5.68908C372.484 4.10599 370.88 2.79564 369.069 1.8329C367.257 0.870151 365.274 0.273875 363.232 0.0781643C361.19 -0.117546 359.13 0.091143 357.169 0.692286L271.957 26.7841L96.2604 80.5946L11.0486 106.696C7.09012 107.912 3.77562 110.649 1.83264 114.307C-0.110335 117.965 -0.52305 122.245 0.685104 126.207L123.868 528.687C124.849 531.885 126.83 534.685 129.518 536.675C132.207 538.665 135.462 539.74 138.807 539.743C140.355 539.744 141.894 539.512 143.372 539.054L201.785 521.169L203.623 520.599V518.679L201.785 519.239L142.831 537.299C139.336 538.364 135.563 538 132.337 536.285C129.111 534.571 126.696 531.647 125.623 528.154L2.44943 125.665C1.91757 123.934 1.73221 122.116 1.90394 120.313C2.07567 118.511 2.60112 116.76 3.45022 115.161C4.29933 113.562 5.45541 112.146 6.85224 110.995C8.24907 109.843 9.85921 108.979 11.5905 108.451L96.8023 82.35L272.5 28.5487L357.711 2.44769C359.025 2.0468 360.39 1.84239 361.763 1.84111C364.709 1.84773 367.576 2.79799 369.944 4.5527C372.311 6.30742 374.055 8.77438 374.919 11.5922L410.795 128.826L411.365 130.665H413.276L412.715 128.826Z" fill="#3F3D56"/>
<path d="M112.71 117.474C110.939 117.473 109.216 116.904 107.792 115.851C106.368 114.798 105.319 113.316 104.799 111.623L92.9651 72.9564C92.6472 71.9178 92.5368 70.8266 92.6404 69.7453C92.744 68.664 93.0595 67.6138 93.569 66.6545C94.0784 65.6952 94.7718 64.8457 95.6094 64.1545C96.4471 63.4633 97.4127 62.9439 98.451 62.6261L260.091 13.1225C262.188 12.4824 264.453 12.7007 266.389 13.7295C268.325 14.7583 269.774 16.5135 270.418 18.6099L282.251 57.2764C282.891 59.3741 282.672 61.6398 281.644 63.5765C280.616 65.5132 278.861 66.9628 276.766 67.6072L115.126 117.111C114.343 117.351 113.529 117.473 112.71 117.474Z" fill="#6477B6"/>
<path d="M174.699 41.3156C184.847 41.3156 193.073 33.0862 193.073 22.9346C193.073 12.7831 184.847 4.55359 174.699 4.55359C164.551 4.55359 156.324 12.7831 156.324 22.9346C156.324 33.0862 164.551 41.3156 174.699 41.3156Z" fill="#6477B6"/>
<path d="M174.699 34.574C181.125 34.574 186.334 29.3629 186.334 22.9346C186.334 16.5063 181.125 11.2952 174.699 11.2952C168.273 11.2952 163.064 16.5063 163.064 22.9346C163.064 29.3629 168.273 34.574 174.699 34.574Z" fill="white"/>
<path d="M553.658 535.047H243.128C241.058 535.045 239.073 534.221 237.609 532.757C236.145 531.292 235.322 529.307 235.319 527.236V155.02C235.321 152.949 236.145 150.963 237.609 149.499C239.073 148.034 241.058 147.21 243.128 147.208H553.658C555.728 147.21 557.713 148.034 559.177 149.499C560.641 150.963 561.464 152.949 561.467 155.02V527.236C561.464 529.307 560.641 531.292 559.177 532.757C557.713 534.221 555.728 535.045 553.658 535.047Z" fill="url(#paint1_linear)"/>
<path d="M410.796 128.827H217.404C213.263 128.833 209.294 130.481 206.366 133.41C203.439 136.338 201.791 140.309 201.785 144.451V519.24L203.623 518.679V144.451C203.627 140.796 205.081 137.292 207.664 134.708C210.248 132.123 213.75 130.669 217.404 130.665H411.365L410.796 128.827ZM579.382 128.827H217.404C213.263 128.833 209.294 130.481 206.366 133.41C203.439 136.338 201.791 140.309 201.785 144.451V565.376C201.791 569.518 203.439 573.489 206.366 576.417C209.294 579.346 213.263 580.994 217.404 581H579.382C583.522 580.994 587.491 579.346 590.419 576.417C593.347 573.489 594.994 569.518 595 565.376V144.451C594.994 140.309 593.347 136.338 590.419 133.41C587.491 130.481 583.522 128.833 579.382 128.827ZM593.163 565.376C593.158 569.031 591.705 572.535 589.121 575.119C586.538 577.704 583.035 579.157 579.382 579.162H217.404C213.75 579.157 210.248 577.704 207.664 575.119C205.081 572.535 203.627 569.031 203.623 565.376V144.451C203.627 140.796 205.081 137.292 207.664 134.708C210.248 132.123 213.75 130.669 217.404 130.665H579.382C583.035 130.669 586.538 132.123 589.121 134.708C591.705 137.292 593.158 140.796 593.163 144.451V565.376Z" fill="#3F3D56"/>
<path d="M482.916 169.265H313.87C311.678 169.263 309.576 168.39 308.026 166.84C306.476 165.289 305.604 163.187 305.602 160.994V120.555C305.604 118.362 306.476 116.26 308.026 114.709C309.576 113.159 311.678 112.286 313.87 112.284H482.916C485.108 112.286 487.21 113.159 488.76 114.709C490.31 116.26 491.182 118.362 491.184 120.555V160.994C491.182 163.187 490.31 165.289 488.76 166.84C487.21 168.39 485.108 169.263 482.916 169.265Z" fill="#6477B6"/>
<path d="M398.393 115.041C408.541 115.041 416.767 106.812 416.767 96.6601C416.767 86.5085 408.541 78.2791 398.393 78.2791C388.245 78.2791 380.018 86.5085 380.018 96.6601C380.018 106.812 388.245 115.041 398.393 115.041Z" fill="#6477B6"/>
<path d="M398.393 107.856C404.574 107.856 409.584 102.843 409.584 96.6601C409.584 90.4769 404.574 85.4644 398.393 85.4644C392.212 85.4644 387.201 90.4769 387.201 96.6601C387.201 102.843 392.212 107.856 398.393 107.856Z" fill="white"/>
<defs>
<linearGradient id="paint0_linear" x1="206.848" y1="25.9176" x2="206.848" y2="513.834" gradientUnits="userSpaceOnUse">
<stop stop-color="#E6E6E6"/>
<stop offset="1" stop-color="#F2F2F2" stop-opacity="0"/>
</linearGradient>
<linearGradient id="paint1_linear" x1="398.393" y1="147.208" x2="398.393" y2="535.047" gradientUnits="userSpaceOnUse">
<stop stop-color="#E6E6E6"/>
<stop offset="1" stop-color="#BEBEBE" stop-opacity="0"/>
</linearGradient>
</defs>
</svg>
