<svg width="97" height="21" viewBox="0 0 97 21" fill="none" xmlns="http://www.w3.org/2000/svg">
<path d="M9.408 17.168C7.856 17.168 6.424 16.808 5.112 16.088C3.816 15.352 2.784 14.336 2.016 13.04C1.264 11.728 0.888 10.256 0.888 8.624C0.888 6.992 1.264 5.528 2.016 4.232C2.784 2.936 3.816 1.928 5.112 1.208C6.424 0.471999 7.856 0.103999 9.408 0.103999C10.976 0.103999 12.408 0.471999 13.704 1.208C15.016 1.928 16.048 2.936 16.8 4.232C17.552 5.528 17.928 6.992 17.928 8.624C17.928 10.256 17.552 11.728 16.8 13.04C16.048 14.336 15.016 15.352 13.704 16.088C12.408 16.808 10.976 17.168 9.408 17.168ZM9.408 14.792C10.512 14.792 11.496 14.544 12.36 14.048C13.224 13.536 13.896 12.816 14.376 11.888C14.872 10.944 15.12 9.856 15.12 8.624C15.12 7.392 14.872 6.312 14.376 5.384C13.896 4.456 13.224 3.744 12.36 3.248C11.496 2.752 10.512 2.504 9.408 2.504C8.304 2.504 7.32 2.752 6.456 3.248C5.592 3.744 4.912 4.456 4.416 5.384C3.936 6.312 3.696 7.392 3.696 8.624C3.696 9.856 3.936 10.944 4.416 11.888C4.912 12.816 5.592 13.536 6.456 14.048C7.32 14.544 8.304 14.792 9.408 14.792ZM47.1309 10.064C47.1309 10.56 47.0989 11.008 47.0349 11.408H36.9309C37.0109 12.464 37.4029 13.312 38.1069 13.952C38.8109 14.592 39.6749 14.912 40.6989 14.912C42.1709 14.912 43.2109 14.296 43.8189 13.064H46.7709C46.3709 14.28 45.6429 15.28 44.5869 16.064C43.5469 16.832 42.2509 17.216 40.6989 17.216C39.4349 17.216 38.2989 16.936 37.2909 16.376C36.2989 15.8 35.5149 15 34.9389 13.976C34.3789 12.936 34.0989 11.736 34.0989 10.376C34.0989 9.016 34.3709 7.824 34.9149 6.8C35.4749 5.76 36.2509 4.96 37.2429 4.4C38.2509 3.84 39.4029 3.56 40.6989 3.56C41.9469 3.56 43.0589 3.832 44.0349 4.376C45.0109 4.92 45.7709 5.688 46.3149 6.68C46.8589 7.656 47.1309 8.784 47.1309 10.064ZM44.2749 9.2C44.2589 8.192 43.8989 7.384 43.1949 6.776C42.4909 6.168 41.6189 5.864 40.5789 5.864C39.6349 5.864 38.8269 6.168 38.1549 6.776C37.4829 7.368 37.0829 8.176 36.9549 9.2H44.2749ZM72.7611 3.56C73.8011 3.56 74.7291 3.776 75.5451 4.208C76.3771 4.64 77.0251 5.28 77.4891 6.128C77.9531 6.976 78.1851 8 78.1851 9.2V17H75.4731V9.608C75.4731 8.424 75.1771 7.52 74.5851 6.896C73.9931 6.256 73.1851 5.936 72.1611 5.936C71.1371 5.936 70.3211 6.256 69.7131 6.896C69.1211 7.52 68.8251 8.424 68.8251 9.608V17H66.0891V3.776H68.8251V5.288C69.2731 4.744 69.8411 4.32 70.5291 4.016C71.2331 3.712 71.9771 3.56 72.7611 3.56Z" fill="#1A2028"/>
<path d="M19.7083 10.376C19.7083 9.016 19.9803 7.824 20.5243 6.8C21.0843 5.76 21.8523 4.96 22.8283 4.4C23.8043 3.84 24.9243 3.56 26.1883 3.56C27.7883 3.56 29.1083 3.944 30.1483 4.712C31.2043 5.464 31.9163 6.544 32.2843 7.952H29.3323C29.0923 7.296 28.7083 6.784 28.1803 6.416C27.6523 6.048 26.9883 5.864 26.1883 5.864C25.0683 5.864 24.1723 6.264 23.5003 7.064C22.8443 7.848 22.5163 8.952 22.5163 10.376C22.5163 11.8 22.8443 12.912 23.5003 13.712C24.1723 14.512 25.0683 14.912 26.1883 14.912C27.7723 14.912 28.8203 14.216 29.3323 12.824H32.2843C31.9003 14.168 31.1803 15.24 30.1243 16.04C29.0683 16.824 27.7563 17.216 26.1883 17.216C24.9243 17.216 23.8043 16.936 22.8283 16.376C21.8523 15.8 21.0843 15 20.5243 13.976C19.9803 12.936 19.7083 11.736 19.7083 10.376ZM48.9114 10.328C48.9114 9 49.1834 7.824 49.7274 6.8C50.2874 5.776 51.0394 4.984 51.9834 4.424C52.9434 3.848 53.9994 3.56 55.1514 3.56C56.1914 3.56 57.0954 3.768 57.8634 4.184C58.6474 4.584 59.2714 5.088 59.7354 5.696V3.776H62.4954V17H59.7354V15.032C59.2714 15.656 58.6394 16.176 57.8394 16.592C57.0394 17.008 56.1274 17.216 55.1034 17.216C53.9674 17.216 52.9274 16.928 51.9834 16.352C51.0394 15.76 50.2874 14.944 49.7274 13.904C49.1834 12.848 48.9114 11.656 48.9114 10.328ZM59.7354 10.376C59.7354 9.464 59.5434 8.672 59.1594 8C58.7914 7.328 58.3034 6.816 57.6954 6.464C57.0874 6.112 56.4314 5.936 55.7274 5.936C55.0234 5.936 54.3674 6.112 53.7594 6.464C53.1514 6.8 52.6554 7.304 52.2714 7.976C51.9034 8.632 51.7194 9.416 51.7194 10.328C51.7194 11.24 51.9034 12.04 52.2714 12.728C52.6554 13.416 53.1514 13.944 53.7594 14.312C54.3834 14.664 55.0394 14.84 55.7274 14.84C56.4314 14.84 57.0874 14.664 57.6954 14.312C58.3034 13.96 58.7914 13.448 59.1594 12.776C59.5434 12.088 59.7354 11.288 59.7354 10.376ZM96.291 17.96V20.504H82.899V17.96H96.291Z" fill="#6477B6"/>
</svg>
