<svg width="25" height="19" viewBox="0 0 25 19" fill="none" xmlns="http://www.w3.org/2000/svg">
<path d="M19.97 5.26999C20.0627 5.17748 20.1362 5.06759 20.1864 4.94662C20.2366 4.82564 20.2624 4.69596 20.2624 4.56499C20.2624 4.43402 20.2366 4.30434 20.1864 4.18337C20.1362 4.0624 20.0627 3.95251 19.97 3.85999L17.14 1.02999C17.0475 0.937289 16.9376 0.863742 16.8166 0.81356C16.6957 0.763379 16.566 0.737549 16.435 0.737549C16.304 0.737549 16.1743 0.763379 16.0534 0.81356C15.9324 0.863742 15.8225 0.937289 15.73 1.02999L11.24 5.51999L7.35 1.62999C6.57 0.849993 5.3 0.849993 4.52 1.62999L2.62 3.52999C1.84 4.30999 1.84 5.57999 2.62 6.35999L6.51 10.25L2 14.76V19H6.24L10.76 14.48L14.65 18.37C15.6 19.32 16.88 18.97 17.48 18.37L19.38 16.47C20.16 15.69 20.16 14.42 19.38 13.64L15.49 9.74999L19.97 5.26999ZM4.04 4.93999L5.93 3.03999L7.2 4.30999L6.02 5.49999L7.43 6.90999L8.62 5.71999L9.82 6.91999L7.92 8.81999L4.04 4.93999ZM15.27 12.38L14.08 13.57L15.49 14.98L16.68 13.79L17.95 15.06L16.05 16.96L12.16 13.07L14.06 11.17L15.27 12.38ZM5.41 17H4V15.59L13.61 5.97999L14.91 7.27999L15.02 7.38999L5.41 17ZM15.02 4.55999L16.43 3.14999L17.84 4.55999L16.43 5.96999L15.02 4.55999Z" fill="black"/>
</svg>
