<svg width="522" height="506" viewBox="0 0 522 506" fill="none" xmlns="http://www.w3.org/2000/svg">
<g clip-path="url(#clip0)">
<g opacity="0.5">
<path opacity="0.5" d="M77.9697 159.19C120.725 159.19 155.385 124.483 155.385 81.6688C155.385 38.8549 120.725 4.14734 77.9697 4.14734C35.2144 4.14734 0.554443 38.8549 0.554443 81.6688C0.554443 124.483 35.2144 159.19 77.9697 159.19Z" fill="url(#paint0_linear)"/>
</g>
<path d="M77.9697 157.13C119.821 157.13 153.748 123.156 153.748 81.2473C153.748 39.3385 119.821 5.36475 77.9697 5.36475C36.1183 5.36475 2.19104 39.3385 2.19104 81.2473C2.19104 123.156 36.1183 157.13 77.9697 157.13Z" fill="#F5F5F5"/>
<path d="M78.1834 157.344C92.9916 157.369 107.479 153.027 119.84 144.862C117.048 129.584 106.42 128.708 106.42 128.708H47.8292C47.8292 128.708 37.8091 129.53 34.6695 143.591C47.4084 152.564 62.6087 157.368 78.1834 157.344Z" fill="#6477B6"/>
<path d="M77.3885 113.215C95.942 113.215 110.983 98.154 110.983 79.5751C110.983 60.9961 95.942 45.9349 77.3885 45.9349C58.835 45.9349 43.7945 60.9961 43.7945 79.5751C43.7945 98.154 58.835 113.215 77.3885 113.215Z" fill="#333333"/>
<path opacity="0.1" d="M65.5848 110.085H89.0252V128.861C89.0252 131.973 87.7907 134.957 85.5934 137.158C83.3961 139.358 80.4158 140.594 77.3083 140.594C74.2008 140.594 71.2206 139.358 69.0233 137.158C66.826 134.957 65.5915 131.973 65.5915 128.861V110.085H65.5848Z" fill="black"/>
<path d="M67.8227 109.215H86.7873C87.3809 109.215 87.95 109.451 88.3697 109.871C88.7894 110.292 89.0252 110.862 89.0252 111.456V127.992C89.0252 131.104 87.7907 134.088 85.5934 136.288C83.3961 138.489 80.4158 139.725 77.3083 139.725C74.2009 139.725 71.2206 138.489 69.0233 136.288C66.826 134.088 65.5915 131.104 65.5915 127.992V111.456C65.5915 110.863 65.8264 110.294 66.2446 109.874C66.6628 109.454 67.2303 109.217 67.8227 109.215Z" fill="#BE7C5E"/>
<path opacity="0.1" d="M65.6316 118.948C73.1859 121.775 81.5017 121.799 89.0719 119.015V116.132H65.6316V118.948Z" fill="black"/>
<path d="M77.3885 120.52C95.942 120.52 110.983 105.459 110.983 86.8798C110.983 68.3008 95.942 53.2396 77.3885 53.2396C58.835 53.2396 43.7945 68.3008 43.7945 86.8798C43.7945 105.459 58.835 120.52 77.3885 120.52Z" fill="#BE7C5E"/>
<path d="M57.0344 73.0063C57.4285 71.5547 57.9228 69.956 59.2254 69.2001C60.2542 68.5981 61.53 68.6917 62.7191 68.7519C72.0044 69.2603 81.2095 67.1398 90.2409 64.9257C95.4046 63.6614 100.929 62.1229 104.269 57.9555C107.609 53.7881 103.254 40.6906 98.1702 39.1454C94.8301 38.122 90.9557 40.0284 87.7894 38.53C86.3799 37.8611 85.3445 36.6102 84.1287 35.6336C81.637 33.6268 78.4373 32.8174 75.3377 32.0548C71.7171 31.1585 67.8026 30.2822 64.3624 31.7204C61.6904 32.8308 59.7398 35.1787 57.208 36.5701C52.3917 39.2458 46.5199 38.0016 41.0022 37.9882C39.1385 37.9882 36.914 38.3628 36.1725 40.0752C35.6715 41.2392 36.0723 42.5636 36.1258 43.8279C36.2861 47.8414 32.9795 50.9653 30.2072 53.8617C27.435 56.7582 24.8164 60.8921 26.5666 64.4909C27.2346 65.8622 28.4571 66.899 29.1518 68.257C30.3475 70.6116 29.7463 73.4545 30.1805 76.0566C30.6153 78.0311 31.3521 79.9264 32.3649 81.6755C34.4224 85.6891 44.7564 107.295 49.5059 101.803C51.8039 99.1277 52.178 91.395 53.1065 87.9166C54.3891 82.9175 55.6983 77.9474 57.0344 73.0063Z" fill="#333333"/>
<path d="M53.4872 91.522C55.2138 91.522 56.6135 88.8955 56.6135 85.6555C56.6135 82.4156 55.2138 79.7891 53.4872 79.7891C51.7606 79.7891 50.361 82.4156 50.361 85.6555C50.361 88.8955 51.7606 91.522 53.4872 91.522Z" fill="#BE7C5E"/>
<g opacity="0.5">
<path opacity="0.5" d="M257.236 327.913C299.991 327.913 334.651 293.205 334.651 250.391C334.651 207.577 299.991 172.87 257.236 172.87C214.481 172.87 179.821 207.577 179.821 250.391C179.821 293.205 214.481 327.913 257.236 327.913Z" fill="url(#paint1_linear)"/>
</g>
<path d="M257.383 325.779C299.234 325.779 333.161 291.805 333.161 249.896C333.161 207.987 299.234 174.014 257.383 174.014C215.531 174.014 181.604 207.987 181.604 249.896C181.604 291.805 215.531 325.779 257.383 325.779Z" fill="#F5F5F5"/>
<path d="M257.45 326.08C272.249 326.099 286.726 321.758 299.08 313.598C296.287 298.32 285.659 297.443 285.659 297.443H227.089C227.089 297.443 217.069 298.266 213.929 312.327C226.67 321.301 241.873 326.105 257.45 326.08Z" fill="#6477B6"/>
<path d="M256.648 284.928C276.851 284.928 293.228 268.528 293.228 248.297C293.228 228.067 276.851 211.667 256.648 211.667C236.445 211.667 220.068 228.067 220.068 248.297C220.068 268.528 236.445 284.928 256.648 284.928Z" fill="#F55F44"/>
<path opacity="0.1" d="M244.844 278.807H268.285V297.584C268.285 300.696 267.05 303.68 264.853 305.88C262.656 308.081 259.675 309.317 256.568 309.317C253.46 309.317 250.48 308.081 248.283 305.88C246.085 303.68 244.851 300.696 244.851 297.584V278.807H244.844Z" fill="black"/>
<path d="M247.082 277.938H266.047C266.341 277.938 266.632 277.995 266.903 278.108C267.175 278.221 267.421 278.386 267.629 278.594C267.837 278.802 268.002 279.049 268.114 279.321C268.227 279.593 268.285 279.884 268.285 280.178V296.714C268.285 298.255 267.982 299.781 267.393 301.204C266.804 302.628 265.941 303.921 264.853 305.011C263.765 306.1 262.473 306.964 261.052 307.554C259.63 308.144 258.106 308.447 256.568 308.447C255.029 308.447 253.505 308.144 252.084 307.554C250.662 306.964 249.371 306.1 248.283 305.011C247.195 303.921 246.332 302.628 245.743 301.204C245.154 299.781 244.851 298.255 244.851 296.714V280.178C244.851 279.584 245.087 279.014 245.506 278.594C245.926 278.174 246.495 277.938 247.089 277.938H247.082Z" fill="#FDA57D"/>
<path opacity="0.1" d="M244.891 287.67C252.445 290.497 260.761 290.521 268.331 287.737V284.854H244.891V287.67Z" fill="black"/>
<path d="M256.648 289.242C275.201 289.242 290.242 274.181 290.242 255.602C290.242 237.023 275.201 221.962 256.648 221.962C238.094 221.962 223.054 237.023 223.054 255.602C223.054 274.181 238.094 289.242 256.648 289.242Z" fill="#FDA57D"/>
<path d="M256.601 224.578C264.068 224.578 270.122 218.516 270.122 211.039C270.122 203.561 264.068 197.5 256.601 197.5C249.134 197.5 243.081 203.561 243.081 211.039C243.081 218.516 249.134 224.578 256.601 224.578Z" fill="#F55F44"/>
<path d="M256.601 206.597C261.504 206.597 265.479 202.617 265.479 197.707C265.479 192.797 261.504 188.817 256.601 188.817C251.698 188.817 247.723 192.797 247.723 197.707C247.723 202.617 251.698 206.597 256.601 206.597Z" fill="#F55F44"/>
<path d="M250.736 218.464C247.564 217.039 245.062 214.445 243.75 211.221C242.437 207.997 242.415 204.391 243.689 201.152C243.595 201.339 243.502 201.533 243.415 201.727C242.688 203.35 242.287 205.1 242.236 206.877C242.185 208.655 242.483 210.425 243.115 212.087C243.747 213.749 244.699 215.27 245.918 216.563C247.137 217.856 248.598 218.896 250.218 219.624C251.839 220.352 253.586 220.753 255.361 220.805C257.136 220.856 258.904 220.557 260.564 219.924C262.223 219.292 263.742 218.338 265.034 217.117C266.325 215.897 267.364 214.434 268.091 212.811C268.178 212.617 268.258 212.423 268.338 212.223C266.769 215.33 264.064 217.712 260.786 218.875C257.508 220.037 253.909 219.89 250.736 218.464Z" fill="#F55F44"/>
<path opacity="0.1" d="M232.727 225.006C232.727 225.006 246.882 253.769 286.835 237.046L277.536 222.444L261.057 216.517L232.727 225.006Z" fill="black"/>
<path d="M232.727 224.577C232.727 224.577 246.882 253.341 286.835 236.618L277.536 222.016L261.057 216.089L232.727 224.577Z" fill="#F55F44"/>
<path d="M243.635 214.102C252.346 213.416 261.097 213.416 269.808 214.102C269.808 214.102 250.476 215.902 243.635 214.102Z" fill="#333333"/>
<path d="M258.632 188.275C257.96 188.25 257.288 188.302 256.628 188.429H257.142C259.329 188.499 261.412 189.375 262.992 190.89C264.573 192.405 265.539 194.451 265.704 196.635C265.87 198.819 265.224 200.988 263.89 202.724C262.556 204.46 260.629 205.642 258.478 206.042C260.831 206.063 263.096 205.147 264.775 203.497C266.453 201.846 267.408 199.595 267.43 197.239C267.451 194.883 266.537 192.615 264.888 190.934C263.239 189.253 260.991 188.296 258.639 188.275H258.632Z" fill="#F55F44"/>
<path d="M223.047 261.435C224.774 261.435 226.173 258.809 226.173 255.569C226.173 252.329 224.774 249.702 223.047 249.702C221.321 249.702 219.921 252.329 219.921 255.569C219.921 258.809 221.321 261.435 223.047 261.435Z" fill="#FDA57D"/>
<path d="M290.242 261.435C291.969 261.435 293.368 258.809 293.368 255.569C293.368 252.329 291.969 249.702 290.242 249.702C288.515 249.702 287.116 252.329 287.116 255.569C287.116 258.809 288.515 261.435 290.242 261.435Z" fill="#FDA57D"/>
<path d="M230.609 225.427L237.162 222.042L238.639 227.467L234.624 230.203L230.609 225.427Z" fill="#F55F44"/>
<g opacity="0.5">
<path opacity="0.5" d="M257.162 155.384C299.918 155.384 334.578 120.677 334.578 77.8626C334.578 35.0487 299.918 0.341187 257.162 0.341187C214.407 0.341187 179.747 35.0487 179.747 77.8626C179.747 120.677 214.407 155.384 257.162 155.384Z" fill="url(#paint2_linear)"/>
</g>
<path d="M257.162 153.324C299.014 153.324 332.941 119.35 332.941 77.4412C332.941 35.5324 299.014 1.55859 257.162 1.55859C215.311 1.55859 181.384 35.5324 181.384 77.4412C181.384 119.35 215.311 153.324 257.162 153.324Z" fill="#F5F5F5"/>
<path d="M227.603 78.1168C227.603 78.1168 219.012 120.5 214.323 118.152C214.323 118.152 259.547 157.271 299.48 118.152C299.48 118.152 292.446 88.2845 282.293 78.1168H227.603Z" fill="#333333"/>
<path d="M257.376 153.551C272.184 153.576 286.672 149.234 299.033 141.069C296.241 125.791 285.613 124.915 285.613 124.915H227.015C227.015 124.915 216.995 125.737 213.855 139.798C226.596 148.772 241.799 153.577 257.376 153.551Z" fill="#6477B6"/>
<path d="M256.574 109.409C275.128 109.409 290.168 94.3479 290.168 75.7689C290.168 57.19 275.128 42.1288 256.574 42.1288C238.021 42.1288 222.98 57.19 222.98 75.7689C222.98 94.3479 238.021 109.409 256.574 109.409Z" fill="#333333"/>
<path opacity="0.1" d="M244.771 106.279H268.211V125.055C268.211 128.164 266.979 131.145 264.786 133.345C262.593 135.544 259.618 136.783 256.514 136.788C253.407 136.788 250.427 135.552 248.229 133.352C246.032 131.151 244.798 128.167 244.798 125.055V106.279H244.771Z" fill="black"/>
<path d="M247.009 105.409H265.973C266.567 105.409 267.136 105.645 267.556 106.065C267.975 106.486 268.211 107.055 268.211 107.65V124.186C268.211 127.294 266.979 130.275 264.786 132.475C262.593 134.675 259.618 135.913 256.514 135.919C253.407 135.919 250.427 134.682 248.229 132.482C246.032 130.282 244.797 127.297 244.797 124.186V107.643C244.799 107.055 245.032 106.49 245.446 106.072C245.86 105.654 246.421 105.416 247.009 105.409Z" fill="#BE7C5E"/>
<path opacity="0.1" d="M244.818 115.142C252.372 117.969 260.688 117.993 268.258 115.208V112.325H244.818V115.142Z" fill="black"/>
<path d="M256.574 116.707C275.128 116.707 290.168 101.646 290.168 83.0669C290.168 64.488 275.128 49.4268 256.574 49.4268C238.021 49.4268 222.98 64.488 222.98 83.0669C222.98 101.646 238.021 116.707 256.574 116.707Z" fill="#BE7C5E"/>
<path d="M224.463 70.2905H288.525C288.525 70.2905 283.054 44.3898 258.839 46.042C234.624 47.6942 224.463 70.2905 224.463 70.2905Z" fill="#333333"/>
<path d="M223.675 87.5018C225.402 87.5018 226.801 84.8753 226.801 81.6354C226.801 78.3954 225.402 75.7689 223.675 75.7689C221.949 75.7689 220.549 78.3954 220.549 81.6354C220.549 84.8753 221.949 87.5018 223.675 87.5018Z" fill="#BE7C5E"/>
<path d="M289.3 87.5018C291.027 87.5018 292.426 84.8753 292.426 81.6354C292.426 78.3954 291.027 75.7689 289.3 75.7689C287.573 75.7689 286.174 78.3954 286.174 81.6354C286.174 84.8753 287.573 87.5018 289.3 87.5018Z" fill="#BE7C5E"/>
<path opacity="0.1" d="M224.463 71.1601H288.525C288.525 71.1601 283.054 45.2594 258.839 46.9116C234.624 48.5639 224.463 71.1601 224.463 71.1601Z" fill="black"/>
<g opacity="0.5">
<path opacity="0.5" d="M441.706 155.043C484.461 155.043 519.121 120.335 519.121 77.5215C519.121 34.7075 484.461 0 441.706 0C398.95 0 364.29 34.7075 364.29 77.5215C364.29 120.335 398.95 155.043 441.706 155.043Z" fill="url(#paint3_linear)"/>
</g>
<path d="M441.853 152.902C483.704 152.902 517.631 118.929 517.631 77.0198C517.631 35.111 483.704 1.13721 441.853 1.13721C400.001 1.13721 366.074 35.111 366.074 77.0198C366.074 118.929 400.001 152.902 441.853 152.902Z" fill="#F5F5F5"/>
<path d="M441.919 153.21C456.728 153.235 471.215 148.893 483.576 140.728C480.777 125.443 470.156 124.567 470.156 124.567H411.565C411.565 124.567 401.545 125.39 398.406 139.45C411.144 148.426 426.344 153.232 441.919 153.21Z" fill="#6477B6"/>
<path d="M441.124 112.051C461.327 112.051 477.705 95.6514 477.705 75.4211C477.705 55.1908 461.327 38.7909 441.124 38.7909C420.922 38.7909 404.544 55.1908 404.544 75.4211C404.544 95.6514 420.922 112.051 441.124 112.051Z" fill="#72351C"/>
<path opacity="0.1" d="M429.314 105.931H452.755V124.707C452.757 126.25 452.456 127.778 451.868 129.203C451.281 130.629 450.418 131.925 449.33 133.017C448.242 134.108 446.949 134.974 445.526 135.565C444.103 136.156 442.578 136.46 441.038 136.46C437.93 136.46 434.95 135.224 432.753 133.024C430.555 130.823 429.321 127.839 429.321 124.727V105.931H429.314Z" fill="black"/>
<path d="M431.532 105.061H450.497C451.09 105.061 451.659 105.297 452.079 105.717C452.499 106.138 452.734 106.708 452.734 107.302V123.838C452.734 126.949 451.5 129.934 449.303 132.134C447.105 134.334 444.125 135.571 441.018 135.571C437.91 135.571 434.93 134.334 432.733 132.134C430.535 129.934 429.301 126.949 429.301 123.838V107.302C429.301 106.708 429.537 106.138 429.956 105.717C430.376 105.297 430.945 105.061 431.539 105.061H431.532Z" fill="#FDA57D"/>
<path opacity="0.1" d="M429.341 114.794C436.895 117.621 445.211 117.645 452.781 114.861V111.978H429.341V114.794Z" fill="black"/>
<path d="M441.125 116.366C459.678 116.366 474.719 101.305 474.719 82.7257C474.719 64.1468 459.678 49.0856 441.125 49.0856C422.571 49.0856 407.53 64.1468 407.53 82.7257C407.53 101.305 422.571 116.366 441.125 116.366Z" fill="#FDA57D"/>
<path opacity="0.1" d="M417.197 52.1291C417.197 52.1291 431.352 80.8928 471.305 64.1698L462.006 49.5672L445.527 43.6405L417.197 52.1291Z" fill="black"/>
<path d="M417.197 51.7078C417.197 51.7078 431.352 80.4714 471.305 63.7484L462.006 49.1458L445.527 43.2191L417.197 51.7078Z" fill="#72351C"/>
<path d="M417.07 49.7612C418.024 46.8024 419.673 44.1162 421.879 41.9281C428.486 35.386 439.321 34.008 444.879 26.5428C445.181 27.0712 445.369 27.657 445.431 28.2626C445.492 28.8682 445.427 29.4801 445.238 30.0587C445.049 30.6373 444.741 31.1699 444.334 31.622C443.927 32.0741 443.43 32.4358 442.875 32.6836C448.219 32.6501 454.371 32.1819 457.377 27.7937C458.121 29.5278 458.358 31.4376 458.062 33.3013C457.765 35.1651 456.946 36.9063 455.7 38.3226C460.417 38.5366 465.453 41.7408 465.761 46.4634C465.961 49.6073 463.997 52.584 461.412 54.3901C458.827 56.1962 455.714 57.0056 452.641 57.6745C443.676 59.6813 411.218 67.9826 417.07 49.7612Z" fill="#72351C"/>
<path d="M474.718 83.02H473.83L456.502 98.4788C439.802 90.6524 427.551 98.4788 427.551 98.4788L409.381 83.6689L407.551 83.8963C407.798 92.7258 411.504 101.103 417.868 107.22C424.231 113.337 432.742 116.702 441.562 116.589C450.382 116.475 458.804 112.893 465.009 106.615C471.214 100.336 474.704 91.8663 474.725 83.0334L474.718 83.02ZM441.078 104.392C434.545 104.392 429.247 103.054 429.247 101.429C429.247 99.8033 434.545 98.4654 441.078 98.4654C447.611 98.4654 452.908 99.8033 452.908 101.429C452.908 103.054 447.611 104.392 441.071 104.392H441.078Z" fill="#72351C"/>
<path d="M407.517 88.5587C409.244 88.5587 410.643 85.9322 410.643 82.6923C410.643 79.4523 409.244 76.8258 407.517 76.8258C405.791 76.8258 404.391 79.4523 404.391 82.6923C404.391 85.9322 405.791 88.5587 407.517 88.5587Z" fill="#FDA57D"/>
<path d="M474.712 88.5587C476.438 88.5587 477.838 85.9322 477.838 82.6923C477.838 79.4523 476.438 76.8258 474.712 76.8258C472.985 76.8258 471.586 79.4523 471.586 82.6923C471.586 85.9322 472.985 88.5587 474.712 88.5587Z" fill="#FDA57D"/>
<g opacity="0.5">
<path opacity="0.5" d="M77.4152 322.835C120.17 322.835 154.83 288.128 154.83 245.314C154.83 202.5 120.17 167.792 77.4152 167.792C34.66 167.792 0 202.5 0 245.314C0 288.128 34.66 322.835 77.4152 322.835Z" fill="url(#paint4_linear)"/>
</g>
<path d="M77.5622 320.702C119.414 320.702 153.341 286.728 153.341 244.819C153.341 202.91 119.414 168.937 77.5622 168.937C35.7108 168.937 1.78357 202.91 1.78357 244.819C1.78357 286.728 35.7108 320.702 77.5622 320.702Z" fill="#F5F5F5"/>
<path d="M77.629 321.003C92.4349 321.026 106.92 316.685 119.279 308.521C116.487 293.242 105.859 292.366 105.859 292.366H47.2414C47.2414 292.366 37.2213 293.189 34.0817 307.25C46.8299 316.229 62.0429 321.034 77.629 321.003Z" fill="#6477B6"/>
<path d="M76.8274 279.851C97.03 279.851 113.407 263.451 113.407 243.22C113.407 222.99 97.03 206.59 76.8274 206.59C56.6248 206.59 40.2474 222.99 40.2474 243.22C40.2474 263.451 56.6248 279.851 76.8274 279.851Z" fill="#333333"/>
<path opacity="0.1" d="M65.0237 273.73H88.4641V292.507C88.4641 295.618 87.2296 298.603 85.0323 300.803C82.8349 303.003 79.8547 304.24 76.7472 304.24C73.6397 304.24 70.6595 303.003 68.4622 300.803C66.2648 298.603 65.0304 295.618 65.0304 292.507V273.73H65.0237Z" fill="black"/>
<path d="M67.2615 272.86H86.2262C86.8197 272.86 87.3889 273.097 87.8086 273.517C88.2283 273.937 88.4641 274.507 88.4641 275.101V291.65C88.4641 294.762 87.2296 297.747 85.0323 299.947C82.8349 302.147 79.8547 303.383 76.7472 303.383C75.208 303.384 73.6837 303.081 72.2613 302.492C70.839 301.903 69.5466 301.039 68.4579 299.949C67.3691 298.86 66.5055 297.566 65.9162 296.142C65.327 294.718 65.0237 293.192 65.0237 291.65V275.095C65.0237 274.5 65.2595 273.93 65.6792 273.51C66.0988 273.09 66.668 272.854 67.2615 272.854V272.86Z" fill="#FDB797"/>
<path opacity="0.1" d="M65.0705 282.593C72.6248 285.42 80.9406 285.444 88.5108 282.66V279.757H65.0705V282.593Z" fill="black"/>
<path d="M76.8274 284.165C95.3809 284.165 110.421 269.104 110.421 250.525C110.421 231.946 95.3809 216.885 76.8274 216.885C58.2739 216.885 43.2334 231.946 43.2334 250.525C43.2334 269.104 58.2739 284.165 76.8274 284.165Z" fill="#FDB797"/>
<path opacity="0.1" d="M52.9061 219.922C52.9061 219.922 67.0611 248.685 107.015 231.962L97.7159 217.36L81.2362 211.433L52.9061 219.922Z" fill="black"/>
<path d="M52.9061 219.5C52.9061 219.5 67.0611 248.264 107.015 231.541L97.7159 216.938L81.2362 211.012L52.9061 219.5Z" fill="#333333"/>
<path d="M52.7792 217.547C53.7335 214.588 55.3829 211.902 57.5888 209.714C64.1954 203.172 75.0304 201.794 80.5883 194.329C80.8902 194.857 81.0782 195.443 81.1401 196.049C81.202 196.654 81.1364 197.266 80.9476 197.845C80.7588 198.423 80.4509 198.956 80.0438 199.408C79.6367 199.86 79.1395 200.222 78.5842 200.47C83.9283 200.436 90.0806 199.968 93.0867 195.58C93.8306 197.314 94.068 199.224 93.7712 201.087C93.4744 202.951 92.6556 204.692 91.4099 206.109C96.1261 206.323 101.163 209.527 101.47 214.249C101.671 217.393 99.7066 220.37 97.1214 222.176C94.5362 223.982 91.4166 224.805 88.3438 225.487C79.3792 227.481 46.9274 235.782 52.7792 217.547Z" fill="#333333"/>
<path d="M43.22 256.358C44.9466 256.358 46.3463 253.732 46.3463 250.492C46.3463 247.252 44.9466 244.625 43.22 244.625C41.4934 244.625 40.0937 247.252 40.0937 250.492C40.0937 253.732 41.4934 256.358 43.22 256.358Z" fill="#FDB797"/>
<path d="M110.415 256.358C112.141 256.358 113.541 253.732 113.541 250.492C113.541 247.252 112.141 244.625 110.415 244.625C108.688 244.625 107.288 247.252 107.288 250.492C107.288 253.732 108.688 256.358 110.415 256.358Z" fill="#FDB797"/>
<g opacity="0.5">
<path opacity="0.5" d="M444.591 331.431C487.347 331.431 522.007 296.724 522.007 253.91C522.007 211.096 487.347 176.388 444.591 176.388C401.836 176.388 367.176 211.096 367.176 253.91C367.176 296.724 401.836 331.431 444.591 331.431Z" fill="url(#paint5_linear)"/>
</g>
<path d="M444.591 329.371C486.443 329.371 520.37 295.397 520.37 253.488C520.37 211.58 486.443 177.606 444.591 177.606C402.74 177.606 368.813 211.58 368.813 253.488C368.813 295.397 402.74 329.371 444.591 329.371Z" fill="#F5F5F5"/>
<path d="M444.805 329.598C459.613 329.623 474.101 325.282 486.462 317.116C483.67 301.838 473.042 300.962 473.042 300.962H414.444C414.444 300.962 404.424 301.785 401.285 315.845C414.025 324.82 429.228 329.624 444.805 329.598Z" fill="#6477B6"/>
<path opacity="0.1" d="M432.2 282.326H455.64V301.102C455.64 304.214 454.406 307.198 452.208 309.399C450.011 311.599 447.031 312.835 443.923 312.835C442.384 312.836 440.86 312.533 439.438 311.944C438.015 311.355 436.723 310.491 435.634 309.401C434.545 308.312 433.682 307.018 433.092 305.594C432.503 304.17 432.2 302.644 432.2 301.102V282.326Z" fill="black"/>
<path d="M434.438 281.456H453.402C453.996 281.456 454.565 281.692 454.985 282.112C455.405 282.533 455.64 283.103 455.64 283.697V300.233C455.64 303.344 454.406 306.329 452.208 308.529C450.011 310.73 447.031 311.966 443.923 311.966C442.384 311.967 440.86 311.664 439.438 311.074C438.015 310.485 436.723 309.621 435.634 308.532C434.545 307.442 433.682 306.148 433.092 304.724C432.503 303.3 432.2 301.774 432.2 300.233V283.697C432.2 283.103 432.436 282.533 432.855 282.112C433.275 281.692 433.844 281.456 434.438 281.456Z" fill="#FDB797"/>
<path opacity="0.1" d="M432.247 291.189C439.801 294.016 448.117 294.04 455.687 291.256V288.373H432.247V291.189Z" fill="black"/>
<path d="M444.004 292.761C462.557 292.761 477.598 277.7 477.598 259.121C477.598 240.542 462.557 225.48 444.004 225.48C425.45 225.48 410.41 240.542 410.41 259.121C410.41 277.7 425.45 292.761 444.004 292.761Z" fill="#FDB797"/>
<path d="M411.104 263.549C412.831 263.549 414.231 260.922 414.231 257.682C414.231 254.442 412.831 251.816 411.104 251.816C409.378 251.816 407.978 254.442 407.978 257.682C407.978 260.922 409.378 263.549 411.104 263.549Z" fill="#FDB797"/>
<path d="M476.729 263.549C478.456 263.549 479.855 260.922 479.855 257.682C479.855 254.442 478.456 251.816 476.729 251.816C475.003 251.816 473.603 254.442 473.603 257.682C473.603 260.922 475.003 263.549 476.729 263.549Z" fill="#FDB797"/>
<path d="M434.999 259.281H426.442C424.837 259.281 423.536 260.584 423.536 262.191V263.569C423.536 265.176 424.837 266.479 426.442 266.479H434.999C436.604 266.479 437.905 265.176 437.905 263.569V262.191C437.905 260.584 436.604 259.281 434.999 259.281Z" stroke="#333333" stroke-width="2" stroke-miterlimit="10"/>
<path d="M453.015 266.472H461.572C463.177 266.472 464.478 265.169 464.478 263.562V262.184C464.478 260.577 463.177 259.275 461.572 259.275H453.015C451.41 259.275 450.109 260.577 450.109 262.184V263.562C450.109 265.169 451.41 266.472 453.015 266.472Z" stroke="#333333" stroke-width="2" stroke-miterlimit="10"/>
<path d="M437.357 259.977C437.357 259.977 441.913 257.502 450.383 259.977" stroke="#333333" stroke-width="2" stroke-miterlimit="10"/>
<path d="M467.23 234.739L475.473 253.917C475.473 253.917 485.554 241.194 467.23 234.739Z" fill="#858585"/>
<path d="M464.478 262.88L476.783 251.876" stroke="#333333" stroke-width="2" stroke-linecap="round" stroke-linejoin="round"/>
<path d="M420.79 234.739L412.547 253.917C412.547 253.917 402.467 241.194 420.79 234.739Z" fill="#858585"/>
<path d="M423.536 262.88L411.064 251.876" stroke="#333333" stroke-width="2" stroke-linecap="round" stroke-linejoin="round"/>
<g opacity="0.5">
<path opacity="0.5" d="M77.9697 497.11C120.725 497.11 155.385 462.402 155.385 419.588C155.385 376.774 120.725 342.067 77.9697 342.067C35.2144 342.067 0.554443 376.774 0.554443 419.588C0.554443 462.402 35.2144 497.11 77.9697 497.11Z" fill="url(#paint6_linear)"/>
</g>
<path d="M77.9697 495.05C119.821 495.05 153.748 461.076 153.748 419.167C153.748 377.258 119.821 343.285 77.9697 343.285C36.1183 343.285 2.19104 377.258 2.19104 419.167C2.19104 461.076 36.1183 495.05 77.9697 495.05Z" fill="#F5F5F5"/>
<path d="M119.887 425.99C119.887 453.938 101.677 485.049 79.2122 485.049C56.7471 485.049 38.5573 453.938 38.5573 425.99C38.5573 398.042 56.7672 383.848 79.2322 383.848C101.697 383.848 119.887 398.049 119.887 425.99Z" fill="#3585FD"/>
<path d="M78.1834 495.284C92.9916 495.308 107.479 490.967 119.84 482.802C117.048 467.523 106.42 466.647 106.42 466.647H47.8292C47.8292 466.647 37.8091 467.47 34.6695 481.531C47.4084 490.504 62.6087 495.308 78.1834 495.284Z" fill="#6477B6"/>
<path opacity="0.1" d="M65.5848 448.004H89.0252V466.781C89.0252 469.893 87.7907 472.877 85.5934 475.077C83.3961 477.278 80.4158 478.514 77.3083 478.514C74.2008 478.514 71.2206 477.278 69.0233 475.077C66.826 472.877 65.5915 469.893 65.5915 466.781V448.004H65.5848Z" fill="black"/>
<path d="M67.8227 447.135H86.7873C87.3809 447.135 87.95 447.371 88.3697 447.791C88.7894 448.211 89.0252 448.781 89.0252 449.376V465.911C89.0252 469.023 87.7907 472.008 85.5934 474.208C83.3961 476.408 80.4158 477.644 77.3083 477.644C74.2009 477.644 71.2206 476.408 69.0233 474.208C66.826 472.008 65.5915 469.023 65.5915 465.911V449.376C65.5915 448.782 65.8264 448.214 66.2446 447.793C66.6628 447.373 67.2303 447.137 67.8227 447.135Z" fill="#FDB797"/>
<path opacity="0.1" d="M65.6316 456.867C73.1859 459.695 81.5017 459.718 89.0719 456.934V454.051H65.6316V456.867Z" fill="black"/>
<path d="M77.3885 458.44C95.942 458.44 110.983 443.378 110.983 424.8C110.983 406.221 95.942 391.159 77.3885 391.159C58.835 391.159 43.7945 406.221 43.7945 424.8C43.7945 443.378 58.835 458.44 77.3885 458.44Z" fill="#FDB797"/>
<path d="M44.4892 429.228C46.2158 429.228 47.6155 426.601 47.6155 423.361C47.6155 420.121 46.2158 417.495 44.4892 417.495C42.7626 417.495 41.3629 420.121 41.3629 423.361C41.3629 426.601 42.7626 429.228 44.4892 429.228Z" fill="#FDB797"/>
<path d="M110.114 429.228C111.841 429.228 113.24 426.601 113.24 423.361C113.24 420.121 111.841 417.495 110.114 417.495C108.388 417.495 106.988 420.121 106.988 423.361C106.988 426.601 108.388 429.228 110.114 429.228Z" fill="#FDB797"/>
<path opacity="0.1" d="M47.6222 406.551C47.6222 406.551 66.6136 432.579 110.168 423.689C110.168 423.689 115.031 417.762 103.194 399.568C91.3565 381.373 58.3971 384.336 47.6222 406.551Z" fill="black"/>
<path d="M47.6222 406.13C47.6222 406.13 66.6136 432.158 110.168 423.268C110.168 423.268 115.031 417.341 103.194 399.146C91.3565 380.952 58.3971 383.915 47.6222 406.13Z" fill="#3585FD"/>
<g opacity="0.5">
<path opacity="0.5" d="M261.878 506C304.634 506 339.294 471.292 339.294 428.479C339.294 385.665 304.634 350.957 261.878 350.957C219.123 350.957 184.463 385.665 184.463 428.479C184.463 471.292 219.123 506 261.878 506Z" fill="url(#paint7_linear)"/>
</g>
<path d="M262.032 503.866C303.883 503.866 337.811 469.892 337.811 427.983C337.811 386.075 303.883 352.101 262.032 352.101C220.181 352.101 186.253 386.075 186.253 427.983C186.253 469.892 220.181 503.866 262.032 503.866Z" fill="#F5F5F5"/>
<path d="M303.722 435.462C303.722 460.707 285.613 473.129 262.092 473.129C238.572 473.129 218.565 460.707 218.565 435.462C218.565 410.217 237.63 389.755 261.144 389.755C284.657 389.755 303.722 410.197 303.722 435.462Z" fill="#333333"/>
<path d="M262.092 504.167C276.903 504.193 291.393 499.852 303.756 491.685C300.963 476.407 290.335 475.531 290.335 475.531H231.738C231.738 475.531 221.718 476.353 218.578 490.414C231.317 499.387 246.517 504.191 262.092 504.167Z" fill="#6477B6"/>
<path opacity="0.1" d="M249.494 456.874H272.934V475.651C272.937 477.196 272.635 478.726 272.045 480.153C271.456 481.581 270.591 482.878 269.5 483.97C268.409 485.062 267.113 485.927 265.687 486.517C264.261 487.106 262.733 487.407 261.19 487.404C258.083 487.404 255.103 486.168 252.905 483.967C250.708 481.767 249.474 478.783 249.474 475.671V456.874H249.494Z" fill="black"/>
<path d="M251.725 456.025H270.689C271.283 456.025 271.852 456.261 272.272 456.681C272.691 457.101 272.927 457.671 272.927 458.266V474.801C272.927 476.344 272.624 477.871 272.033 479.296C271.443 480.721 270.579 482.015 269.488 483.105C268.398 484.195 267.104 485.059 265.68 485.647C264.257 486.235 262.731 486.537 261.19 486.534C258.083 486.534 255.103 485.298 252.905 483.098C250.708 480.898 249.474 477.913 249.474 474.801V458.259C249.474 457.665 249.709 457.095 250.129 456.674C250.549 456.254 251.118 456.018 251.711 456.018L251.725 456.025Z" fill="#FDA57D"/>
<path opacity="0.1" d="M249.54 465.758C257.095 468.585 265.41 468.609 272.981 465.824V462.941H249.54V465.758Z" fill="black"/>
<path d="M261.297 467.323C279.851 467.323 294.891 452.262 294.891 433.683C294.891 415.104 279.851 400.042 261.297 400.042C242.744 400.042 227.703 415.104 227.703 433.683C227.703 452.262 242.744 467.323 261.297 467.323Z" fill="#FDA57D"/>
<path opacity="0.1" d="M222.58 435.883C222.58 435.883 243.502 433.342 259.32 413.033C259.32 413.033 280.242 436.098 294.818 433.556C294.818 433.556 303.268 424.666 294.818 415.782C286.368 406.899 279.814 395.681 268.619 397.16C257.423 398.638 243.682 399.273 237.77 404.565C231.858 409.856 222.58 435.883 222.58 435.883Z" fill="black"/>
<path d="M222.58 435.462C222.58 435.462 243.502 432.92 259.32 412.612C259.32 412.612 280.242 435.676 294.818 433.134C294.818 433.134 303.268 424.244 294.818 415.361C286.368 406.478 279.814 395.26 268.619 396.738C257.423 398.217 243.709 398.825 237.797 404.177C231.885 409.528 222.58 435.462 222.58 435.462Z" fill="#333333"/>
<path d="M227.69 439.522C229.416 439.522 230.816 436.896 230.816 433.656C230.816 430.416 229.416 427.79 227.69 427.79C225.963 427.79 224.564 430.416 224.564 433.656C224.564 436.896 225.963 439.522 227.69 439.522Z" fill="#FDA57D"/>
<path d="M294.885 439.522C296.611 439.522 298.011 436.896 298.011 433.656C298.011 430.416 296.611 427.79 294.885 427.79C293.158 427.79 291.758 430.416 291.758 433.656C291.758 436.896 293.158 439.522 294.885 439.522Z" fill="#FDA57D"/>
</g>
<defs>
<linearGradient id="paint0_linear" x1="77.9697" y1="159.19" x2="77.9697" y2="4.15403" gradientUnits="userSpaceOnUse">
<stop stop-color="#808080" stop-opacity="0.25"/>
<stop offset="0.54" stop-color="#808080" stop-opacity="0.12"/>
<stop offset="1" stop-color="#808080" stop-opacity="0.1"/>
</linearGradient>
<linearGradient id="paint1_linear" x1="59801.9" y1="76176.5" x2="59801.9" y2="40242.2" gradientUnits="userSpaceOnUse">
<stop stop-color="#808080" stop-opacity="0.25"/>
<stop offset="0.54" stop-color="#808080" stop-opacity="0.12"/>
<stop offset="1" stop-color="#808080" stop-opacity="0.1"/>
</linearGradient>
<linearGradient id="paint2_linear" x1="59784.8" y1="36015.3" x2="59784.8" y2="79.4132" gradientUnits="userSpaceOnUse">
<stop stop-color="#808080" stop-opacity="0.25"/>
<stop offset="0.54" stop-color="#808080" stop-opacity="0.12"/>
<stop offset="1" stop-color="#808080" stop-opacity="0.1"/>
</linearGradient>
<linearGradient id="paint3_linear" x1="102743" y1="35934.3" x2="102743" y2="0" gradientUnits="userSpaceOnUse">
<stop stop-color="#808080" stop-opacity="0.25"/>
<stop offset="0.54" stop-color="#808080" stop-opacity="0.12"/>
<stop offset="1" stop-color="#808080" stop-opacity="0.1"/>
</linearGradient>
<linearGradient id="paint4_linear" x1="17943.3" y1="74994.6" x2="17943.3" y2="39060.3" gradientUnits="userSpaceOnUse">
<stop stop-color="#808080" stop-opacity="0.25"/>
<stop offset="0.54" stop-color="#808080" stop-opacity="0.12"/>
<stop offset="1" stop-color="#808080" stop-opacity="0.1"/>
</linearGradient>
<linearGradient id="paint5_linear" x1="103415" y1="76995.5" x2="103415" y2="41061.2" gradientUnits="userSpaceOnUse">
<stop stop-color="#808080" stop-opacity="0.25"/>
<stop offset="0.54" stop-color="#808080" stop-opacity="0.12"/>
<stop offset="1" stop-color="#808080" stop-opacity="0.1"/>
</linearGradient>
<linearGradient id="paint6_linear" x1="18072.4" y1="115562" x2="18072.4" y2="79627.9" gradientUnits="userSpaceOnUse">
<stop stop-color="#808080" stop-opacity="0.25"/>
<stop offset="0.54" stop-color="#808080" stop-opacity="0.12"/>
<stop offset="1" stop-color="#808080" stop-opacity="0.1"/>
</linearGradient>
<linearGradient id="paint7_linear" x1="60882.6" y1="117632" x2="60882.6" y2="81697.3" gradientUnits="userSpaceOnUse">
<stop stop-color="#808080" stop-opacity="0.25"/>
<stop offset="0.54" stop-color="#808080" stop-opacity="0.12"/>
<stop offset="1" stop-color="#808080" stop-opacity="0.1"/>
</linearGradient>
<clipPath id="clip0">
<rect width="522" height="506" fill="white"/>
</clipPath>
</defs>
</svg>
