<svg width="156" height="156" viewBox="0 0 156 156" fill="none" xmlns="http://www.w3.org/2000/svg">
<g opacity="0.5">
<path opacity="0.5" d="M77.9697 155.11C120.725 155.11 155.385 120.402 155.385 77.5883C155.385 34.7744 120.725 0.0668945 77.9697 0.0668945C35.2144 0.0668945 0.554443 34.7744 0.554443 77.5883C0.554443 120.402 35.2144 155.11 77.9697 155.11Z" fill="url(#paint0_linear)"/>
</g>
<path d="M77.9697 153.05C119.821 153.05 153.748 119.076 153.748 77.1673C153.748 35.2585 119.821 1.28467 77.9697 1.28467C36.1183 1.28467 2.19104 35.2585 2.19104 77.1673C2.19104 119.076 36.1183 153.05 77.9697 153.05Z" fill="#F5F5F5"/>
<path d="M119.887 83.99C119.887 111.938 101.677 143.049 79.2122 143.049C56.7471 143.049 38.5573 111.938 38.5573 83.99C38.5573 56.0424 56.7672 41.8479 79.2322 41.8479C101.697 41.8479 119.887 56.0491 119.887 83.99Z" fill="#3585FD"/>
<path d="M78.1834 153.284C92.9916 153.308 107.479 148.967 119.84 140.802C117.048 125.524 106.42 124.647 106.42 124.647H47.8292C47.8292 124.647 37.8091 125.47 34.6695 139.531C47.4084 148.504 62.6087 153.308 78.1834 153.284Z" fill="#6477B6"/>
<path opacity="0.1" d="M65.5848 106.004H89.0252V124.781C89.0252 127.893 87.7907 130.877 85.5934 133.077C83.3961 135.278 80.4158 136.514 77.3083 136.514C74.2008 136.514 71.2206 135.278 69.0233 133.077C66.826 130.877 65.5915 127.893 65.5915 124.781V106.004H65.5848Z" fill="black"/>
<path d="M67.8227 105.135H86.7873C87.3809 105.135 87.95 105.371 88.3697 105.791C88.7894 106.211 89.0252 106.781 89.0252 107.376V123.911C89.0252 127.023 87.7907 130.008 85.5934 132.208C83.3961 134.408 80.4158 135.644 77.3083 135.644C74.2009 135.644 71.2206 134.408 69.0233 132.208C66.826 130.008 65.5915 127.023 65.5915 123.911V107.376C65.5915 106.782 65.8264 106.214 66.2446 105.793C66.6628 105.373 67.2303 105.137 67.8227 105.135Z" fill="#FDB797"/>
<path opacity="0.1" d="M65.6316 114.867C73.1859 117.695 81.5017 117.718 89.0719 114.934V112.051H65.6316V114.867Z" fill="black"/>
<path d="M77.3885 116.439C95.942 116.439 110.983 101.378 110.983 82.7993C110.983 64.2204 95.942 49.1592 77.3885 49.1592C58.8351 49.1592 43.7945 64.2204 43.7945 82.7993C43.7945 101.378 58.8351 116.439 77.3885 116.439Z" fill="#FDB797"/>
<path d="M44.4892 87.2278C46.2158 87.2278 47.6155 84.6013 47.6155 81.3613C47.6155 78.1214 46.2158 75.4949 44.4892 75.4949C42.7626 75.4949 41.3629 78.1214 41.3629 81.3613C41.3629 84.6013 42.7626 87.2278 44.4892 87.2278Z" fill="#FDB797"/>
<path d="M110.114 87.2278C111.841 87.2278 113.24 84.6013 113.24 81.3613C113.24 78.1214 111.841 75.4949 110.114 75.4949C108.388 75.4949 106.988 78.1214 106.988 81.3613C106.988 84.6013 108.388 87.2278 110.114 87.2278Z" fill="#FDB797"/>
<path opacity="0.1" d="M47.6222 64.5512C47.6222 64.5512 66.6136 90.579 110.168 81.689C110.168 81.689 115.031 75.7624 103.194 57.5677C91.3565 39.373 58.3971 42.3363 47.6222 64.5512Z" fill="black"/>
<path d="M47.6222 64.1299C47.6222 64.1299 66.6136 90.1576 110.168 81.2677C110.168 81.2677 115.031 75.341 103.194 57.1463C91.3565 38.9516 58.3971 41.9149 47.6222 64.1299Z" fill="#3585FD"/>
<defs>
<linearGradient id="paint0_linear" x1="18072.4" y1="115220" x2="18072.4" y2="79285.9" gradientUnits="userSpaceOnUse">
<stop stop-color="#808080" stop-opacity="0.25"/>
<stop offset="0.54" stop-color="#808080" stop-opacity="0.12"/>
<stop offset="1" stop-color="#808080" stop-opacity="0.1"/>
</linearGradient>
</defs>
</svg>
