<svg width="156" height="156" viewBox="0 0 156 156" fill="none" xmlns="http://www.w3.org/2000/svg">
<g opacity="0.5">
<path opacity="0.5" d="M77.5915 155.431C120.347 155.431 155.007 120.724 155.007 77.9096C155.007 35.0957 120.347 0.388184 77.5915 0.388184C34.8362 0.388184 0.176208 35.0957 0.176208 77.9096C0.176208 120.724 34.8362 155.431 77.5915 155.431Z" fill="url(#paint0_linear)"/>
</g>
<path d="M77.5915 153.371C119.443 153.371 153.37 119.397 153.37 77.4883C153.37 35.5795 119.443 1.60571 77.5915 1.60571C35.7401 1.60571 1.81287 35.5795 1.81287 77.4883C1.81287 119.397 35.7401 153.371 77.5915 153.371Z" fill="#F5F5F5"/>
<path d="M77.8052 153.598C92.6134 153.623 107.101 149.282 119.462 141.116C116.67 125.838 106.042 124.962 106.042 124.962H47.4443C47.4443 124.962 37.4242 125.785 34.2846 139.845C47.0254 148.82 62.2283 153.624 77.8052 153.598Z" fill="#6477B6"/>
<path opacity="0.1" d="M65.2 106.326H88.6403V125.102C88.6403 128.214 87.4058 131.198 85.2085 133.399C83.0112 135.599 80.0309 136.835 76.9234 136.835C75.3842 136.836 73.8599 136.533 72.4376 135.944C71.0152 135.355 69.7228 134.491 68.6341 133.401C67.5454 132.312 66.6817 131.018 66.0925 129.594C65.5032 128.17 65.2 126.644 65.2 125.102V106.326Z" fill="black"/>
<path d="M67.4378 105.456H86.4024C86.996 105.456 87.5652 105.692 87.9848 106.112C88.4045 106.533 88.6403 107.103 88.6403 107.697V124.233C88.6403 127.344 87.4058 130.329 85.2085 132.529C83.0112 134.73 80.0309 135.966 76.9234 135.966C75.3842 135.967 73.8599 135.664 72.4376 135.074C71.0152 134.485 69.7228 133.621 68.6341 132.532C67.5454 131.442 66.6817 130.148 66.0925 128.724C65.5032 127.3 65.2 125.774 65.2 124.233V107.697C65.2 107.103 65.4357 106.533 65.8554 106.112C66.2751 105.692 66.8442 105.456 67.4378 105.456Z" fill="#FDB797"/>
<path opacity="0.1" d="M65.2467 115.189C72.801 118.016 81.1168 118.04 88.6871 115.256V112.373H65.2467V115.189Z" fill="black"/>
<path d="M77.0036 116.761C95.5571 116.761 110.598 101.7 110.598 83.1206C110.598 64.5417 95.5571 49.4805 77.0036 49.4805C58.4501 49.4805 43.4096 64.5417 43.4096 83.1206C43.4096 101.7 58.4501 116.761 77.0036 116.761Z" fill="#FDB797"/>
<path d="M44.1043 87.5488C45.8309 87.5488 47.2306 84.9223 47.2306 81.6824C47.2306 78.4424 45.8309 75.8159 44.1043 75.8159C42.3777 75.8159 40.978 78.4424 40.978 81.6824C40.978 84.9223 42.3777 87.5488 44.1043 87.5488Z" fill="#FDB797"/>
<path d="M109.729 87.5488C111.456 87.5488 112.855 84.9223 112.855 81.6824C112.855 78.4424 111.456 75.8159 109.729 75.8159C108.003 75.8159 106.603 78.4424 106.603 81.6824C106.603 84.9223 108.003 87.5488 109.729 87.5488Z" fill="#FDB797"/>
<path d="M67.9989 83.2812H59.4417C57.8369 83.2812 56.5359 84.584 56.5359 86.1911V87.569C56.5359 89.1761 57.8369 90.4789 59.4417 90.4789H67.9989C69.6037 90.4789 70.9047 89.1761 70.9047 87.569V86.1911C70.9047 84.584 69.6037 83.2812 67.9989 83.2812Z" stroke="#333333" stroke-width="2" stroke-miterlimit="10"/>
<path d="M86.015 90.4722H94.5722C96.177 90.4722 97.478 89.1694 97.478 87.5624V86.1844C97.478 84.5773 96.177 83.2746 94.5722 83.2746H86.015C84.4102 83.2746 83.1092 84.5773 83.1092 86.1844V87.5624C83.1092 89.1694 84.4102 90.4722 86.015 90.4722Z" stroke="#333333" stroke-width="2" stroke-miterlimit="10"/>
<path d="M70.3569 83.977C70.3569 83.977 74.9127 81.5019 83.383 83.977" stroke="#333333" stroke-width="2" stroke-miterlimit="10"/>
<path d="M100.23 58.7385L108.473 77.9165C108.473 77.9165 118.554 65.1936 100.23 58.7385Z" fill="#858585"/>
<path d="M97.478 86.8799L109.783 75.8762" stroke="#333333" stroke-width="2" stroke-linecap="round" stroke-linejoin="round"/>
<path d="M53.7904 58.7385L45.5472 77.9165C45.5472 77.9165 35.4671 65.1936 53.7904 58.7385Z" fill="#858585"/>
<path d="M56.5359 86.8799L44.0642 75.8762" stroke="#333333" stroke-width="2" stroke-linecap="round" stroke-linejoin="round"/>
<defs>
<linearGradient id="paint0_linear" x1="103048" y1="76819.5" x2="103048" y2="40885.2" gradientUnits="userSpaceOnUse">
<stop stop-color="#808080" stop-opacity="0.25"/>
<stop offset="0.54" stop-color="#808080" stop-opacity="0.12"/>
<stop offset="1" stop-color="#808080" stop-opacity="0.1"/>
</linearGradient>
</defs>
</svg>
