<svg width="156" height="156" viewBox="0 0 156 156" fill="none" xmlns="http://www.w3.org/2000/svg">
<g opacity="0.5">
<path opacity="0.5" d="M78.1623 155.384C120.918 155.384 155.578 120.677 155.578 77.8626C155.578 35.0487 120.918 0.341187 78.1623 0.341187C35.4071 0.341187 0.74707 35.0487 0.74707 77.8626C0.74707 120.677 35.4071 155.384 78.1623 155.384Z" fill="url(#paint0_linear)"/>
</g>
<path d="M78.1623 153.324C120.014 153.324 153.941 119.35 153.941 77.4412C153.941 35.5324 120.014 1.55859 78.1623 1.55859C36.3109 1.55859 2.38367 35.5324 2.38367 77.4412C2.38367 119.35 36.3109 153.324 78.1623 153.324Z" fill="#F5F5F5"/>
<path d="M48.603 78.1168C48.603 78.1168 40.0125 120.5 35.3231 118.152C35.3231 118.152 80.547 157.271 120.48 118.152C120.48 118.152 113.446 88.2845 103.293 78.1168H48.603Z" fill="#333333"/>
<path d="M78.3761 153.551C93.1843 153.576 107.672 149.234 120.033 141.069C117.241 125.791 106.613 124.915 106.613 124.915H48.0152C48.0152 124.915 37.9951 125.737 34.8555 139.798C47.5963 148.772 62.7991 153.577 78.3761 153.551Z" fill="#6477B6"/>
<path d="M77.5744 109.409C96.1279 109.409 111.168 94.3479 111.168 75.7689C111.168 57.19 96.1279 42.1288 77.5744 42.1288C59.021 42.1288 43.9804 57.19 43.9804 75.7689C43.9804 94.3479 59.021 109.409 77.5744 109.409Z" fill="#333333"/>
<path opacity="0.1" d="M65.7708 106.279H89.2112V125.055C89.2112 128.164 87.9795 131.145 85.7865 133.345C83.5935 135.544 80.6184 136.783 77.5144 136.788C74.4069 136.788 71.4266 135.552 69.2293 133.352C67.032 131.151 65.7975 128.167 65.7975 125.055V106.279H65.7708Z" fill="black"/>
<path d="M68.0086 105.409H86.9733C87.5668 105.409 88.136 105.645 88.5557 106.065C88.9754 106.486 89.2112 107.055 89.2112 107.65V124.186C89.2112 127.294 87.9795 130.275 85.7865 132.475C83.5935 134.675 80.6184 135.913 77.5143 135.919C74.4068 135.919 71.4266 134.682 69.2293 132.482C67.0319 130.282 65.7975 127.297 65.7975 124.186V107.643C65.7992 107.055 66.0321 106.49 66.4458 106.072C66.8595 105.654 67.4209 105.416 68.0086 105.409Z" fill="#BE7C5E"/>
<path opacity="0.1" d="M65.8176 115.142C73.3718 117.969 81.6876 117.993 89.2579 115.208V112.325H65.8176V115.142Z" fill="black"/>
<path d="M77.5744 116.707C96.1279 116.707 111.168 101.646 111.168 83.0669C111.168 64.488 96.1279 49.4268 77.5744 49.4268C59.021 49.4268 43.9804 64.488 43.9804 83.0669C43.9804 101.646 59.021 116.707 77.5744 116.707Z" fill="#BE7C5E"/>
<path d="M45.4634 70.2905H109.525C109.525 70.2905 104.054 44.3898 79.839 46.042C55.6238 47.6942 45.4634 70.2905 45.4634 70.2905Z" fill="#333333"/>
<path d="M44.6751 87.5018C46.4017 87.5018 47.8014 84.8753 47.8014 81.6354C47.8014 78.3954 46.4017 75.7689 44.6751 75.7689C42.9486 75.7689 41.5489 78.3954 41.5489 81.6354C41.5489 84.8753 42.9486 87.5018 44.6751 87.5018Z" fill="#BE7C5E"/>
<path d="M110.3 87.5018C112.027 87.5018 113.426 84.8753 113.426 81.6354C113.426 78.3954 112.027 75.7689 110.3 75.7689C108.573 75.7689 107.174 78.3954 107.174 81.6354C107.174 84.8753 108.573 87.5018 110.3 87.5018Z" fill="#BE7C5E"/>
<path opacity="0.1" d="M45.4634 71.16H109.525C109.525 71.16 104.054 45.2593 79.839 46.9115C55.6238 48.5637 45.4634 71.16 45.4634 71.16Z" fill="black"/>
<defs>
<linearGradient id="paint0_linear" x1="59605.8" y1="36015.3" x2="59605.8" y2="79.4132" gradientUnits="userSpaceOnUse">
<stop stop-color="#808080" stop-opacity="0.25"/>
<stop offset="0.54" stop-color="#808080" stop-opacity="0.12"/>
<stop offset="1" stop-color="#808080" stop-opacity="0.1"/>
</linearGradient>
</defs>
</svg>
