<svg width="18" height="19" viewBox="0 0 18 19" fill="none" xmlns="http://www.w3.org/2000/svg">
<path d="M18.563 0.339942C18.4192 0.242054 18.2524 0.183293 18.0789 0.169442C17.9055 0.15559 17.7315 0.187124 17.574 0.260942L0.573981 8.26094C0.400209 8.34283 0.253699 8.47303 0.151971 8.63598C0.0502435 8.79893 -0.00239639 8.98774 0.00034609 9.17982C0.00308857 9.3719 0.0610975 9.55912 0.167436 9.7191C0.273775 9.87908 0.423942 10.0051 0.599981 10.0819L5.99998 12.4449V19.1669L11.836 14.9989L16.6 17.0829C16.7471 17.1474 16.9075 17.1754 17.0677 17.1647C17.2279 17.154 17.3832 17.1049 17.5204 17.0216C17.6576 16.9382 17.7728 16.823 17.8561 16.6857C17.9394 16.5485 17.9884 16.3932 17.999 16.2329L18.999 1.23294C19.0099 1.05907 18.9755 0.885335 18.8991 0.728782C18.8226 0.572228 18.7068 0.438233 18.563 0.339942ZM16.097 14.6799L10.828 12.3739L14 6.16694L6.35098 10.4169L3.41898 9.13394L16.89 2.79394L16.097 14.6799Z" fill="black"/>
</svg>
